{"glyphs":{"0":{"ha":840,"x_min":0,"x_max":0,"o":"m 646 986 b 915 729 807 986 915 876 b 910 667 915 710 914 689 l 826 307 b 415 -14 779 129 599 -14 b 146 243 254 -14 146 94 b 153 307 146 264 149 285 l 236 667 b 646 986 283 846 463 986 m 783 667 b 786 703 785 679 786 692 b 617 863 786 796 718 863 b 361 667 503 863 392 776 l 278 307 b 275 271 275 294 275 283 b 443 110 275 179 342 110 b 700 307 557 110 669 196 "},"1":{"ha":363,"x_min":0,"x_max":0,"o":"m 322 821 l 219 821 l 358 972 l 479 972 l 254 0 l 133 0 "},"2":{"ha":703,"x_min":0,"x_max":0,"o":"m 267 861 b 556 986 347 938 451 986 b 801 774 713 986 801 907 b 792 689 801 747 799 719 b 211 118 719 376 275 379 l 654 118 l 661 0 l 39 0 b 665 689 146 474 603 419 b 671 744 669 708 671 728 b 526 863 671 822 622 863 b 338 779 457 863 389 831 l 267 861 "},"3":{"ha":639,"x_min":0,"x_max":0,"o":"m 269 894 b 472 986 317 933 386 979 b 668 815 604 986 668 913 b 661 760 668 797 665 779 b 538 585 646 694 599 624 b 665 383 617 543 665 474 b 658 317 665 363 663 340 b 244 -14 615 135 431 -14 b 32 86 153 -14 79 25 l 140 165 b 272 110 171 129 217 110 b 532 317 389 110 506 203 b 536 361 535 332 536 347 b 365 513 536 451 467 513 l 279 513 l 307 632 l 390 632 l 392 632 b 536 760 457 632 522 701 b 539 786 539 769 539 778 b 446 869 539 835 508 869 b 332 815 413 867 389 861 "},"4":{"ha":783,"x_min":0,"x_max":0,"o":"m 568 972 l 689 972 l 319 417 l 567 417 l 614 625 l 735 625 l 688 417 l 826 417 l 801 307 l 663 307 l 592 0 l 469 0 l 542 307 l 125 307 "},"5":{"ha":701,"x_min":0,"x_max":0,"o":"m 460 650 b 729 392 621 650 729 540 b 721 318 729 368 726 343 b 307 -14 678 135 493 -14 b 76 113 203 -14 121 36 l 183 194 b 335 111 213 142 265 111 b 594 318 451 111 568 203 b 600 364 597 333 600 349 b 431 525 600 456 532 525 b 269 460 368 525 319 501 l 174 524 l 383 972 l 819 972 l 757 856 l 439 856 l 310 596 b 454 650 340 619 407 650 l 460 650 "},"6":{"ha":774,"x_min":0,"x_max":0,"o":"m 510 524 b 251 317 393 524 278 432 b 246 271 247 301 246 286 b 414 111 246 179 314 111 b 674 317 531 111 647 203 b 679 363 676 333 679 349 b 510 524 679 456 610 524 m 539 647 b 808 390 699 647 808 538 b 800 317 808 367 806 342 b 386 -14 757 135 572 -14 b 115 244 225 -14 115 97 b 125 317 115 267 118 292 b 575 986 167 499 357 708 l 682 954 b 397 601 600 860 471 704 b 531 647 433 624 488 647 l 539 647 "},"7":{"ha":644,"x_min":0,"x_max":0,"o":"m 250 972 l 833 972 l 356 0 l 229 0 l 661 854 l 222 854 "},"8":{"ha":782,"x_min":0,"x_max":0,"o":"m 589 874 b 447 757 522 872 464 819 b 443 732 444 749 443 740 b 535 644 443 689 476 644 l 536 644 l 539 644 b 679 757 603 644 664 700 b 682 785 681 767 682 776 b 589 874 682 835 651 874 m 253 317 b 247 271 249 301 247 286 b 415 110 247 179 315 110 b 675 317 532 110 649 203 b 681 363 678 332 681 347 b 511 526 681 456 613 526 b 253 317 394 526 279 431 m 126 317 b 372 600 154 442 253 547 b 318 717 339 631 318 671 b 324 757 318 729 321 743 b 615 986 351 881 490 986 b 810 801 725 986 810 906 b 804 757 810 788 807 772 b 685 600 789 693 744 639 b 810 386 763 557 810 481 b 801 317 810 364 807 340 b 388 -14 758 135 574 -14 b 117 244 226 -14 117 97 b 126 317 117 267 119 292 "},"9":{"ha":776,"x_min":0,"x_max":0,"o":"m 489 449 b 747 656 606 449 721 542 b 753 701 751 672 753 688 b 583 863 753 794 685 863 b 325 656 467 863 351 771 b 319 610 321 640 319 625 b 489 449 319 518 388 449 m 460 325 b 190 583 299 325 190 436 b 199 656 190 606 193 631 b 613 986 240 839 426 986 b 882 729 772 986 882 876 b 874 656 882 706 879 681 b 424 -14 832 475 642 265 l 317 19 b 601 372 399 113 528 269 b 467 325 565 350 511 325 l 460 325 "}," ":{"ha":486,"x_min":0,"x_max":0,"o":""},"!":{"ha":339,"x_min":0,"x_max":0,"o":"m 454 972 l 293 275 l 172 275 l 333 972 m 199 146 b 264 83 238 146 264 119 b 263 65 264 78 264 71 b 163 -14 253 22 207 -14 b 97 49 124 -14 97 13 b 100 65 97 54 99 60 b 199 146 110 110 154 146 "},"\"":{"ha":507,"x_min":0,"x_max":0,"o":"m 633 972 l 546 694 l 471 694 l 514 972 m 444 972 l 357 694 l 282 694 l 325 972 "},"#":{"ha":867,"x_min":0,"x_max":0,"o":"m 639 438 l 446 438 l 382 249 l 575 249 m 785 131 l 657 131 l 613 0 l 493 0 l 538 131 l 344 131 l 300 0 l 181 0 l 225 131 l 74 131 l 100 249 l 263 249 l 326 438 l 214 438 l 240 554 l 365 554 l 411 694 l 531 694 l 485 554 l 678 554 l 724 694 l 843 694 l 797 554 l 951 554 l 925 438 l 758 438 l 694 249 l 811 249 "},"$":{"ha":717,"x_min":0,"x_max":0,"o":"m 432 117 b 611 282 517 139 592 196 b 614 303 613 289 614 297 b 503 424 614 356 564 390 m 486 864 b 369 735 419 850 386 804 b 367 711 368 726 367 719 b 428 613 367 669 393 640 l 486 864 m 243 735 b 513 981 267 842 365 958 l 526 1042 l 646 1042 l 632 982 b 810 860 713 971 774 925 l 701 782 b 606 864 682 822 651 853 l 535 557 b 743 329 635 506 743 447 b 738 282 743 315 742 299 b 404 -6 701 129 560 25 l 389 -69 l 269 -69 l 283 -14 b 54 113 186 -8 94 40 l 163 190 b 311 106 188 143 249 111 l 396 475 b 238 682 313 522 238 581 b 243 735 238 699 239 717 "},"%":{"ha":1249,"x_min":0,"x_max":0,"o":"m 1106 628 b 1283 458 1213 628 1283 556 b 1279 417 1283 446 1282 431 l 1229 199 b 958 -12 1200 82 1079 -12 b 782 157 854 -12 782 60 b 786 199 782 169 783 185 l 836 417 b 1106 628 867 535 986 628 m 1167 417 b 1169 436 1168 424 1169 429 b 1081 518 1169 483 1135 518 b 949 417 1021 518 965 474 l 899 199 b 897 179 897 192 897 186 b 983 99 897 132 931 99 b 1117 199 1044 99 1101 142 m 511 986 b 689 817 617 986 689 913 b 685 775 689 803 688 789 l 635 557 b 364 347 604 440 485 347 b 186 515 258 347 186 418 b 192 557 186 528 188 543 l 242 775 b 511 986 271 892 392 986 m 572 775 b 574 794 574 782 574 788 b 485 875 574 842 539 875 b 354 775 425 875 369 832 l 304 557 b 301 538 303 550 301 544 b 389 457 301 490 336 457 b 522 557 450 457 506 500 m 1197 969 l 381 4 l 261 4 l 1078 969 "},"&":{"ha":885,"x_min":0,"x_max":0,"o":"m 408 499 b 254 317 329 468 274 401 b 249 271 250 301 249 286 b 417 110 249 179 317 110 b 624 208 492 110 575 154 l 408 499 m 621 986 b 828 857 729 986 785 938 l 721 781 b 592 863 692 831 663 863 l 588 863 b 439 754 501 863 457 821 b 496 621 439 726 460 661 l 706 318 l 756 417 l 858 383 l 776 229 l 890 71 l 789 -14 l 692 125 b 389 -14 614 42 501 -14 b 118 244 228 -14 118 97 b 128 317 118 267 121 292 b 351 593 154 433 243 539 b 303 724 325 625 303 675 b 304 747 303 731 303 739 b 614 986 332 869 446 979 "},"'":{"ha":318,"x_min":0,"x_max":0,"o":"m 444 972 l 357 694 l 282 694 l 325 972 "},"(":{"ha":456,"x_min":0,"x_max":0,"o":"m 643 906 b 279 354 421 756 344 636 b 244 110 258 263 244 182 b 385 -211 244 -12 282 -114 l 351 -246 b 121 217 206 -151 121 31 b 136 350 121 261 126 306 b 629 939 193 593 347 788 "},")":{"ha":463,"x_min":0,"x_max":0,"o":"m 289 986 b 515 567 447 872 515 732 b 493 393 515 511 507 453 b 17 -208 442 167 253 -92 l -14 -169 b 353 397 222 -14 296 151 b 388 636 375 493 388 571 b 243 944 388 763 343 846 l 289 986 "},"*":{"ha":568,"x_min":0,"x_max":0,"o":"m 571 1050 l 538 910 l 675 981 l 703 904 l 563 838 l 672 771 l 610 696 l 504 767 l 472 626 l 383 626 l 415 765 l 274 693 l 246 769 l 390 839 l 278 907 l 342 983 l 449 911 l 482 1050 "},"+":{"ha":711,"x_min":0,"x_max":0,"o":"m 749 253 l 489 253 l 489 0 l 368 0 l 368 253 l 107 253 l 107 371 l 368 371 l 368 625 l 489 625 l 489 371 l 749 371 "},",":{"ha":368,"x_min":0,"x_max":0,"o":"m 328 64 l 93 -147 l 39 -107 l 243 128 "},"-":{"ha":711,"x_min":0,"x_max":0,"o":"m 121 371 l 763 371 l 735 253 l 93 253 "},".":{"ha":343,"x_min":0,"x_max":0,"o":"m 201 147 b 267 85 240 147 267 121 b 264 67 267 79 265 72 b 165 -14 254 22 210 -14 b 101 49 126 -14 101 13 b 103 67 101 54 101 61 b 201 147 113 111 157 147 "},"/":{"ha":482,"x_min":0,"x_max":0,"o":"m 679 972 l 140 0 l 21 0 l 560 972 "},":":{"ha":342,"x_min":0,"x_max":0,"o":"m 294 556 b 361 493 333 556 361 528 b 358 476 361 488 360 482 b 258 399 349 433 303 399 b 194 460 221 399 194 425 b 196 476 194 465 194 471 b 294 556 206 519 250 556 m 200 142 b 265 79 238 142 265 114 b 263 63 265 74 264 68 b 164 -14 253 21 208 -14 b 99 46 125 -14 99 13 b 100 63 99 51 99 57 b 200 142 111 106 156 142 "},";":{"ha":360,"x_min":0,"x_max":0,"o":"m 317 75 l 81 -147 l 28 -103 l 235 142 m 321 556 b 388 493 360 556 388 528 b 385 476 388 488 386 482 b 285 399 375 433 329 399 b 221 460 247 399 221 425 b 222 476 221 465 221 471 b 321 556 232 519 276 556 "},"<":{"ha":799,"x_min":0,"x_max":0,"o":"m 319 424 l 813 278 l 813 164 l 135 371 l 135 476 l 813 683 l 813 569 "},"=":{"ha":858,"x_min":0,"x_max":0,"o":"m 822 149 l 181 149 l 181 264 l 822 264 m 822 360 l 181 360 l 181 475 l 822 475 "},">":{"ha":800,"x_min":0,"x_max":0,"o":"m 182 683 l 861 476 l 861 371 l 182 164 l 182 278 l 676 424 l 182 569 "},"?":{"ha":643,"x_min":0,"x_max":0,"o":"m 281 146 b 346 82 319 146 346 118 b 344 65 346 76 346 71 b 244 -14 335 22 289 -14 b 179 49 206 -14 179 13 b 182 65 179 54 181 60 b 281 146 192 108 236 146 m 482 986 b 751 729 643 986 751 876 b 743 657 751 706 749 682 b 389 335 706 492 551 357 l 375 275 l 254 275 l 294 454 b 358 450 317 451 331 450 b 617 657 475 450 590 542 b 622 703 621 672 622 688 b 453 863 622 794 554 863 b 281 799 392 863 331 839 l 215 883 b 482 986 293 949 388 986 "},"@":{"ha":1100,"x_min":0,"x_max":0,"o":"m 658 638 b 494 478 568 638 494 565 b 658 317 494 389 568 317 b 826 478 750 317 826 389 b 658 638 826 565 750 638 m 669 986 b 1164 554 939 986 1164 836 b 901 214 1158 318 1038 215 l 826 281 b 658 217 782 239 721 217 b 390 478 511 217 390 333 b 658 742 390 622 511 742 b 826 674 722 742 782 715 l 826 728 l 918 728 l 918 319 b 1057 542 1007 331 1057 397 l 1057 554 b 669 882 1057 776 879 882 b 281 479 458 882 281 703 b 664 72 281 257 458 72 b 881 121 758 72 804 78 l 881 21 b 686 -29 814 -21 767 -29 l 663 -29 b 175 479 401 -29 175 201 b 669 986 175 760 400 986 "},"A":{"ha":1192,"x_min":0,"x_max":0,"o":"m 1054 540 l 1028 429 l 358 429 l 385 540 m 1092 483 b 1101 567 1099 513 1101 540 b 793 861 1101 735 976 861 b 319 483 581 861 368 692 l 208 0 l 85 0 l 197 485 b 822 986 261 761 540 986 b 1229 596 1065 986 1229 819 b 1217 485 1229 560 1225 524 l 1104 0 l 981 0 "},"B":{"ha":874,"x_min":0,"x_max":0,"o":"m 493 546 b 764 693 667 546 746 614 b 768 736 767 708 768 724 b 564 851 768 815 715 850 l 426 851 l 356 546 m 257 121 l 474 121 b 746 269 647 121 728 190 b 750 313 749 285 750 300 b 508 431 750 414 664 431 l 468 431 l 329 431 m 593 972 b 908 768 818 972 908 894 b 899 693 908 744 904 719 b 767 510 881 619 839 556 b 889 340 851 476 889 419 b 881 269 889 318 886 294 b 447 0 844 122 717 0 l 108 0 l 333 972 "},"C":{"ha":875,"x_min":0,"x_max":0,"o":"m 1029 851 l 767 851 b 297 486 554 851 344 694 b 288 404 290 458 288 431 b 597 121 288 238 414 121 l 860 121 l 832 0 l 568 0 b 157 378 325 0 157 157 b 169 486 157 413 161 449 b 793 972 233 763 511 972 l 1057 972 "},"D":{"ha":939,"x_min":0,"x_max":0,"o":"m 394 121 b 865 486 607 121 817 278 b 875 568 871 514 875 542 b 564 851 875 733 747 851 l 426 851 l 257 121 m 593 972 b 1004 594 836 972 1004 815 b 992 486 1004 560 1000 524 b 368 0 928 210 650 0 l 108 0 l 333 972 "},"E":{"ha":878,"x_min":0,"x_max":0,"o":"m 1029 851 l 767 851 b 311 542 569 851 378 721 l 835 542 l 810 432 l 285 432 b 283 400 283 421 283 411 b 597 121 283 238 413 121 l 860 121 l 832 0 l 568 0 b 157 378 325 0 157 157 b 169 486 157 413 161 449 b 793 972 233 763 511 972 l 1057 972 "},"F":{"ha":878,"x_min":0,"x_max":0,"o":"m 1051 851 l 789 851 b 333 542 592 851 400 719 l 857 542 l 832 431 l 307 431 l 207 0 l 85 0 l 197 486 b 815 972 261 763 533 972 l 1079 972 "},"G":{"ha":1124,"x_min":0,"x_max":0,"o":"m 1076 972 l 1047 851 l 765 851 b 294 482 553 851 343 690 b 285 399 288 453 285 426 b 593 111 285 232 410 111 b 1056 431 831 114 1013 264 l 672 431 l 697 544 l 1206 544 l 1179 436 b 565 -14 1117 171 824 -14 b 156 371 321 -14 156 149 b 168 481 156 406 160 443 b 793 972 232 757 511 972 "},"H":{"ha":924,"x_min":0,"x_max":0,"o":"m 333 972 l 454 972 l 354 543 l 819 543 l 919 972 l 1040 972 l 815 0 l 694 0 l 794 432 l 329 432 l 229 0 l 108 0 "},"I":{"ha":479,"x_min":0,"x_max":0,"o":"m 632 972 l 604 851 l 496 851 l 326 121 l 438 121 l 410 0 l 71 0 l 99 121 l 206 121 l 375 851 l 267 851 l 294 972 "},"J":{"ha":875,"x_min":0,"x_max":0,"o":"m 44 122 l 307 122 b 772 481 503 122 719 253 l 858 854 l 688 854 l 715 972 l 1011 972 l 899 488 b 281 0 835 210 563 0 l 17 0 "},"K":{"ha":808,"x_min":0,"x_max":0,"o":"m 1008 972 l 472 486 l 788 0 l 649 0 l 339 474 l 229 0 l 108 0 l 333 972 l 454 972 l 344 499 l 876 972 "},"L":{"ha":876,"x_min":0,"x_max":0,"o":"m 596 0 b 190 376 353 0 190 156 b 203 488 190 411 194 449 l 315 972 l 439 972 l 338 533 b 325 432 329 499 325 465 b 625 122 325 264 432 122 l 888 122 l 860 0 "},"M":{"ha":1192,"x_min":0,"x_max":0,"o":"m 1092 483 b 1103 569 1099 513 1103 542 b 851 861 1103 722 1003 840 l 653 0 l 533 0 l 732 861 b 319 483 543 835 364 676 l 208 0 l 85 0 l 197 485 b 822 986 261 761 540 986 b 1229 596 1065 986 1229 819 b 1217 485 1229 560 1225 524 l 1104 0 l 981 0 "},"N":{"ha":1192,"x_min":0,"x_max":0,"o":"m 1092 483 b 1101 567 1099 513 1101 540 b 793 861 1101 735 976 861 b 319 483 581 861 368 692 l 208 0 l 85 0 l 197 485 b 822 986 261 761 540 986 b 1229 596 1065 986 1229 819 b 1217 485 1229 560 1225 524 l 1104 0 l 981 0 "},"O":{"ha":1142,"x_min":0,"x_max":0,"o":"m 768 863 b 297 488 556 863 346 696 b 288 404 290 460 288 432 b 594 111 288 238 411 111 b 1067 488 807 111 1019 281 b 1076 571 1074 517 1076 544 b 768 863 1076 739 951 863 m 797 986 b 1207 596 1040 986 1207 819 b 1194 486 1207 561 1203 524 b 567 -14 1131 211 849 -14 b 158 376 324 -14 158 154 b 171 486 158 411 163 449 b 797 986 235 763 515 986 "},"P":{"ha":783,"x_min":0,"x_max":0,"o":"m 494 546 b 765 693 668 546 747 614 b 769 736 768 708 769 722 b 565 851 769 814 718 850 l 428 851 l 357 546 m 594 972 b 910 768 819 972 910 894 b 900 693 910 744 906 719 b 468 429 865 546 738 429 l 329 429 l 231 0 l 108 0 l 333 972 "},"Q":{"ha":1142,"x_min":0,"x_max":0,"o":"m 613 217 l 736 217 l 765 139 b 1065 483 908 200 1031 332 b 1075 567 1072 513 1075 540 b 765 861 1075 736 950 861 b 296 483 556 861 344 693 b 286 400 290 454 286 426 b 592 113 286 232 410 113 b 650 111 613 113 632 113 m 794 986 b 1207 593 1040 986 1207 818 b 1193 482 1207 557 1201 521 b 804 38 1149 286 990 117 l 869 -139 l 743 -139 l 690 -3 b 639 -12 674 -7 656 -10 b 586 -14 621 -14 604 -14 l 563 -14 b 157 371 321 -14 157 147 b 169 482 157 406 161 443 b 794 986 233 760 514 986 "},"R":{"ha":796,"x_min":0,"x_max":0,"o":"m 492 544 b 764 693 665 544 746 614 b 768 736 767 708 768 722 b 564 851 768 814 717 850 l 426 851 l 356 544 m 593 972 b 908 767 818 972 908 893 b 899 693 908 744 904 719 b 529 438 867 557 758 451 l 733 0 l 593 0 l 390 429 l 328 429 l 229 0 l 108 0 l 333 972 "},"S":{"ha":719,"x_min":0,"x_max":0,"o":"m 582 986 b 810 857 689 986 767 938 l 703 781 b 553 863 674 831 624 863 b 371 733 439 863 390 817 b 368 710 369 725 368 718 b 746 331 368 553 746 533 b 739 285 746 317 743 301 b 310 -14 697 101 496 -14 b 56 115 203 -14 100 36 l 164 193 b 338 110 193 143 267 110 b 613 285 454 110 586 171 b 615 308 615 293 615 301 b 239 683 615 464 239 460 b 244 733 239 699 240 715 b 582 986 271 856 394 986 "},"T":{"ha":796,"x_min":0,"x_max":0,"o":"m 535 856 l 222 856 l 250 972 l 996 972 l 968 856 l 656 856 l 458 0 l 338 0 "},"U":{"ha":1200,"x_min":0,"x_max":0,"o":"m 1336 972 l 1224 488 b 597 -14 1160 211 879 -14 b 190 376 354 -14 190 153 b 203 488 190 413 194 449 l 315 972 l 439 972 l 326 489 b 317 406 321 460 317 432 b 626 113 317 238 443 113 b 1099 489 839 113 1051 281 l 1211 972 "},"V":{"ha":1049,"x_min":0,"x_max":0,"o":"m 1260 972 l 522 -14 l 240 972 l 368 972 l 576 221 l 1133 972 "},"W":{"ha":1492,"x_min":0,"x_max":0,"o":"m 1260 972 l 936 535 l 1019 221 l 1576 972 l 1703 972 l 965 -14 l 842 417 l 522 -14 l 240 972 l 368 972 l 576 221 l 804 533 l 683 972 l 811 972 l 899 653 l 1133 972 "},"X":{"ha":829,"x_min":0,"x_max":0,"o":"m 1024 972 l 592 485 l 796 0 l 669 0 l 503 382 l 161 0 l 32 0 l 464 485 l 257 972 l 385 972 l 551 589 l 897 972 "},"Y":{"ha":807,"x_min":0,"x_max":0,"o":"m 1024 972 l 161 0 l 32 0 l 461 489 l 257 972 l 392 972 l 558 589 l 897 972 "},"Z":{"ha":761,"x_min":0,"x_max":0,"o":"m 589 540 l 692 540 l 667 431 l 506 431 l 242 110 l 760 110 l 735 0 l 17 0 l 369 431 l 261 431 l 286 540 l 454 540 l 719 863 l 258 863 l 285 972 l 936 972 "},"[":{"ha":388,"x_min":0,"x_max":0,"o":"m 561 972 l 542 888 l 435 888 l 208 -89 l 315 -89 l 296 -174 l 68 -174 l 333 972 "},"\\":{"ha":485,"x_min":0,"x_max":0,"o":"m 463 0 l 343 0 l 254 972 l 374 972 "},"]":{"ha":388,"x_min":0,"x_max":0,"o":"m 239 -174 l 11 -174 l 31 -89 l 138 -89 l 364 888 l 257 888 l 276 972 l 504 972 "},"^":{"ha":544,"x_min":0,"x_max":0,"o":"m 497 972 l 654 701 l 594 646 l 468 849 l 247 646 l 215 701 "},"_":{"ha":858,"x_min":0,"x_max":0,"o":"m 701 -208 l 60 -208 l 76 -139 l 718 -139 "},"`":{"ha":365,"x_min":0,"x_max":0,"o":"m 153 972 l 301 769 l 244 729 l 60 904 "},"a":{"ha":840,"x_min":0,"x_max":0,"o":"m 526 515 b 268 311 410 515 293 424 b 263 267 264 296 263 281 b 432 107 263 175 331 107 b 694 311 550 107 668 199 b 699 354 697 326 699 340 b 526 515 699 446 628 515 m 554 639 b 750 553 636 639 706 606 l 768 625 l 878 625 l 729 -14 l 638 65 b 404 -14 569 17 485 -14 b 133 240 243 -14 133 94 b 142 311 133 263 136 286 b 554 639 183 492 368 639 "},"b":{"ha":847,"x_min":0,"x_max":0,"o":"m 554 514 b 299 317 435 514 325 431 b 293 269 294 300 293 285 b 461 110 293 178 358 110 b 719 317 578 110 692 201 b 724 361 722 332 724 347 b 554 514 724 451 656 514 m 583 639 b 854 389 744 639 854 536 b 846 317 854 367 851 342 b 433 -14 803 133 619 -14 b 240 67 353 -14 286 18 l 106 -14 l 333 972 l 450 972 l 353 553 b 583 639 422 606 501 639 "},"c":{"ha":696,"x_min":0,"x_max":0,"o":"m 554 639 b 774 536 649 639 726 601 l 669 453 b 526 517 638 492 588 517 b 268 313 410 517 294 425 b 263 267 264 297 263 282 b 432 108 263 175 332 108 b 599 167 490 108 550 131 l 671 89 b 404 -14 593 26 499 -14 b 133 242 243 -14 133 94 b 142 313 133 264 136 288 b 554 639 183 492 368 639 "},"d":{"ha":842,"x_min":0,"x_max":0,"o":"m 519 514 b 268 311 403 514 294 425 b 263 263 264 294 263 278 b 426 110 263 172 326 110 b 690 317 544 110 663 201 b 694 360 693 332 694 346 b 519 514 694 451 622 514 m 549 639 b 747 563 631 639 701 615 l 842 972 l 958 972 l 731 -14 l 632 67 b 399 -14 564 18 479 -14 b 132 236 239 -14 132 90 b 142 311 132 260 135 285 b 549 639 183 494 363 639 "},"e":{"ha":729,"x_min":0,"x_max":0,"o":"m 625 475 b 526 517 615 499 582 517 b 268 313 410 517 294 425 b 260 260 264 294 261 275 m 554 639 b 794 461 685 639 767 563 l 292 169 b 432 108 319 132 369 108 b 599 167 490 108 550 131 l 671 89 b 404 -14 593 26 499 -14 b 133 242 243 -14 133 94 b 142 313 133 264 136 288 b 554 639 183 492 368 639 "},"f":{"ha":435,"x_min":0,"x_max":0,"o":"m 300 625 l 307 657 b 694 986 347 828 517 971 l 667 868 b 429 657 558 854 454 763 l 422 625 l 526 625 l 499 507 l 394 507 l 278 0 l 156 0 l 272 507 l 169 507 l 197 625 "},"g":{"ha":799,"x_min":0,"x_max":0,"o":"m 407 110 b 669 313 525 110 643 199 b 675 357 674 328 675 343 b 501 517 675 450 603 517 b 246 313 385 517 272 428 b 240 267 242 297 240 281 b 407 110 240 175 307 110 m 379 -14 b 111 239 218 -14 111 93 b 119 313 111 263 114 288 b 529 639 161 496 343 639 b 726 560 610 639 681 608 l 863 639 l 711 -18 b 301 -347 669 -199 485 -347 b 88 -243 208 -347 133 -307 l 197 -169 b 331 -224 231 -204 276 -224 b 593 -18 447 -224 568 -128 l 613 65 b 379 -14 543 13 461 -14 "},"h":{"ha":872,"x_min":0,"x_max":0,"o":"m 590 639 b 858 381 751 639 858 529 b 850 307 858 357 856 332 l 779 0 l 656 0 l 726 307 b 732 353 731 322 732 338 b 563 515 732 446 663 515 b 299 307 444 515 325 422 l 228 0 l 108 0 l 333 972 l 453 972 l 353 540 b 590 639 411 596 508 639 "},"i":{"ha":338,"x_min":0,"x_max":0,"o":"m 379 910 b 449 842 421 910 449 881 b 447 824 449 836 449 831 b 340 739 436 778 388 739 b 269 806 299 739 269 768 b 272 824 269 811 271 818 b 379 910 283 871 332 910 m 374 628 l 229 0 l 108 0 l 253 628 "},"j":{"ha":338,"x_min":0,"x_max":0,"o":"m 379 910 b 449 842 421 910 449 879 b 447 824 449 836 449 829 b 340 738 436 776 388 738 b 269 806 299 738 269 767 b 272 824 269 811 271 817 b 379 910 283 869 332 910 m 374 626 l 149 -347 l 28 -347 l 253 626 "},"k":{"ha":719,"x_min":0,"x_max":0,"o":"m 453 972 l 317 386 l 679 625 l 826 625 l 521 415 l 679 0 l 544 0 l 410 344 l 289 263 l 228 0 l 108 0 l 333 972 "},"l":{"ha":338,"x_min":0,"x_max":0,"o":"m 454 972 l 229 0 l 108 0 l 333 972 "},"m":{"ha":1421,"x_min":0,"x_max":0,"o":"m 590 639 b 839 485 710 639 803 579 b 1133 639 911 554 997 639 l 1140 639 b 1410 383 1301 639 1410 529 b 1401 311 1410 360 1407 336 l 1329 0 l 1206 0 l 1278 311 b 1283 356 1281 326 1283 342 b 1113 517 1283 449 1213 517 b 851 311 996 517 878 425 l 779 0 l 656 0 l 728 311 b 733 356 731 326 733 342 b 563 517 733 449 663 517 b 300 311 444 517 326 425 l 228 0 l 108 0 l 253 625 l 372 625 l 353 542 b 590 639 411 596 508 639 "},"n":{"ha":871,"x_min":0,"x_max":0,"o":"m 590 639 b 860 383 751 639 860 529 b 851 311 860 360 857 336 l 779 0 l 656 0 l 728 311 b 733 356 731 326 733 342 b 563 517 733 449 663 517 b 300 311 444 517 326 425 l 228 0 l 108 0 l 253 625 l 372 625 l 353 542 b 590 639 411 596 508 639 "},"o":{"ha":817,"x_min":0,"x_max":0,"o":"m 526 517 b 268 313 410 517 294 425 b 263 267 264 297 263 282 b 432 108 263 175 332 108 b 690 313 549 108 664 199 b 696 357 693 328 696 343 b 526 517 696 449 626 517 m 554 639 b 825 383 715 639 825 529 b 817 313 825 361 822 336 b 404 -14 775 132 590 -14 b 133 242 243 -14 133 94 b 142 313 133 264 136 288 b 554 639 183 492 368 639 "},"p":{"ha":846,"x_min":0,"x_max":0,"o":"m 465 111 b 718 314 582 111 692 199 b 724 361 722 331 724 346 b 560 515 724 451 660 515 b 296 314 440 515 322 428 b 290 269 293 299 290 283 b 465 111 290 176 363 111 m 438 -14 b 240 72 356 -14 285 19 l 143 -347 l 26 -347 l 254 639 l 353 558 b 588 639 421 607 507 639 b 854 389 747 639 854 535 b 844 314 854 365 850 340 b 438 -14 803 131 624 -14 "},"q":{"ha":842,"x_min":0,"x_max":0,"o":"m 426 111 b 689 314 544 111 663 199 b 694 358 693 329 694 343 b 521 515 694 450 622 515 b 268 314 404 515 294 428 b 263 265 264 297 263 281 b 426 111 263 175 328 111 m 399 -14 b 133 239 239 -14 133 93 b 142 314 133 263 136 288 b 549 639 185 497 363 639 b 746 558 629 639 700 607 l 881 639 l 653 -347 l 536 -347 l 633 72 b 399 -14 564 19 481 -14 "},"r":{"ha":492,"x_min":0,"x_max":0,"o":"m 601 639 l 574 519 l 563 519 b 300 313 444 519 326 426 l 228 0 l 108 0 l 253 625 l 372 625 l 353 543 b 590 639 411 596 508 639 "},"s":{"ha":547,"x_min":0,"x_max":0,"o":"m 421 639 b 574 536 493 639 547 601 l 476 468 b 393 517 463 499 435 517 b 314 463 343 517 322 497 b 313 449 313 457 313 453 b 526 232 313 363 526 379 b 521 188 526 218 525 204 b 239 -14 492 63 361 -14 b 72 88 167 -14 99 24 l 176 163 b 267 107 193 133 225 107 b 400 188 324 107 388 135 b 401 201 401 193 401 197 b 189 421 401 292 189 268 b 193 463 189 433 190 447 b 421 639 211 549 296 639 "},"t":{"ha":435,"x_min":0,"x_max":0,"o":"m 463 799 l 422 625 l 526 625 l 499 506 l 394 506 l 278 0 l 157 0 l 274 506 l 169 506 l 197 625 l 301 625 l 342 799 "},"u":{"ha":871,"x_min":0,"x_max":0,"o":"m 428 -14 b 158 240 267 -14 158 94 b 167 313 158 264 161 288 l 239 625 l 363 625 l 290 313 b 285 268 286 297 285 283 b 456 108 285 176 354 108 b 718 313 574 108 692 200 l 790 625 l 907 625 l 760 -14 l 664 81 b 428 -14 607 29 510 -14 "},"v":{"ha":776,"x_min":0,"x_max":0,"o":"m 294 625 l 421 133 l 776 625 l 890 625 l 451 0 l 331 0 l 175 625 "},"w":{"ha":1371,"x_min":0,"x_max":0,"o":"m 294 625 l 421 132 l 774 625 l 889 625 l 1015 132 l 1371 625 l 1485 625 l 1046 0 l 925 0 l 803 496 l 451 0 l 331 0 l 175 625 "},"x":{"ha":721,"x_min":0,"x_max":0,"o":"m 501 307 l 678 0 l 546 0 l 413 225 l 176 0 l 44 0 l 363 307 l 185 625 l 310 625 l 451 389 l 701 625 l 826 625 "},"y":{"ha":781,"x_min":0,"x_max":0,"o":"m 296 625 l 424 126 l 778 625 l 894 625 l 208 -347 l 78 -347 l 326 1 l 176 625 "},"z":{"ha":726,"x_min":0,"x_max":0,"o":"m 283 107 l 706 107 l 681 0 l 38 0 l 583 517 l 179 517 l 204 625 l 819 625 "},"{":{"ha":424,"x_min":0,"x_max":0,"o":"m 576 864 l 547 864 b 451 782 488 864 467 846 l 393 528 b 229 314 364 403 321 346 b 304 182 279 288 304 246 b 293 97 304 157 300 129 l 235 -157 b 229 -197 231 -174 229 -186 b 292 -239 229 -229 247 -239 l 321 -239 l 296 -347 l 224 -347 b 97 -222 142 -347 97 -303 b 106 -158 97 -203 100 -182 l 160 76 b 172 167 168 114 172 143 b 96 258 172 222 149 247 l 121 367 b 268 549 204 383 240 426 l 322 783 b 529 972 350 901 426 972 l 601 972 "},"|":{"ha":338,"x_min":0,"x_max":0,"o":"m 321 972 l 321 -174 l 200 -174 l 200 972 "},"}":{"ha":424,"x_min":0,"x_max":0,"o":"m 344 972 b 471 847 426 972 471 926 b 463 783 471 828 468 807 l 408 549 b 396 458 400 511 396 482 b 472 367 396 403 419 378 l 447 258 b 300 76 364 242 328 199 l 246 -158 b 39 -347 218 -278 142 -347 l -33 -347 l -8 -239 l 21 -239 b 117 -157 81 -239 101 -222 l 175 97 b 339 314 201 211 253 278 b 261 432 285 336 261 371 b 275 528 261 458 265 490 l 333 782 b 339 821 338 797 339 811 b 276 864 339 854 321 864 l 247 864 l 272 972 "},"~":{"ha":847,"x_min":0,"x_max":0,"o":"m 878 465 b 667 347 832 388 763 347 l 663 347 b 378 424 538 347 496 419 b 242 347 325 424 304 413 l 169 397 b 379 511 226 474 296 511 b 540 474 447 511 497 492 b 665 435 585 454 622 435 b 810 513 719 435 746 449 "}," ":{"ha":486,"x_min":0,"x_max":0,"o":""},"¡":{"ha":338,"x_min":0,"x_max":0,"o":"m 189 350 l 310 350 l 149 -347 l 28 -347 m 276 479 b 213 542 238 479 213 507 b 214 560 213 549 213 554 b 313 639 224 603 268 639 b 378 576 351 639 378 611 b 376 560 378 571 378 565 b 276 479 367 517 321 479 "},"¢":{"ha":676,"x_min":0,"x_max":0,"o":"m 503 524 b 254 313 394 521 281 425 b 249 264 250 296 249 279 b 288 154 249 221 263 183 l 503 524 m 542 644 b 569 642 551 644 560 644 l 639 764 l 760 764 l 674 613 b 761 540 708 594 739 569 l 657 456 b 607 501 643 474 628 492 l 378 106 l 418 106 b 583 165 476 106 535 128 l 656 86 b 389 -19 579 22 483 -19 b 313 -7 361 -19 335 -15 l 236 -139 l 115 -139 l 215 39 b 119 238 154 83 119 154 b 128 313 119 263 122 288 b 542 644 169 494 356 644 "},"£":{"ha":939,"x_min":0,"x_max":0,"o":"m 658 0 b 253 376 415 0 253 157 b 265 488 253 413 257 449 l 271 514 l 149 514 l 176 632 l 299 632 l 378 972 l 800 972 l 714 854 l 472 854 l 421 632 l 663 632 l 635 514 l 393 514 b 385 429 388 485 385 457 b 688 122 385 263 493 122 l 950 122 l 922 0 "},"¤":{"ha":679,"x_min":0,"x_max":0,"o":"m 429 556 b 300 428 357 556 300 499 b 429 299 300 356 357 299 b 558 428 501 299 558 356 b 429 556 558 499 501 556 m 432 640 b 532 617 468 640 503 633 l 600 682 l 699 589 l 629 519 b 654 428 644 492 654 461 b 632 336 654 393 646 364 l 704 265 l 607 172 l 535 239 b 429 213 504 221 468 213 b 332 235 394 213 361 221 l 268 172 l 171 265 l 235 332 b 207 428 217 360 207 392 b 236 525 207 464 218 494 l 172 590 l 269 683 l 338 619 b 432 640 367 635 397 640 "},"¥":{"ha":797,"x_min":0,"x_max":0,"o":"m 1007 972 l 576 486 l 571 461 l 751 461 l 724 342 l 543 342 l 519 242 l 700 242 l 674 124 l 493 124 l 464 0 l 333 0 l 363 124 l 199 124 l 225 242 l 389 242 l 413 342 l 249 342 l 276 461 l 440 461 l 446 488 l 240 972 l 375 972 l 542 589 l 881 972 "},"¦":{"ha":332,"x_min":0,"x_max":0,"o":"m 318 289 l 318 -174 l 199 -174 l 199 217 m 318 972 l 318 547 l 199 475 l 199 972 "},"§":{"ha":600,"x_min":0,"x_max":0,"o":"m 438 593 b 301 488 375 593 315 546 b 299 464 300 479 299 472 b 388 382 299 417 335 382 b 524 488 450 382 510 429 b 526 511 525 496 526 503 b 438 593 526 558 490 593 m 538 321 b 575 231 561 299 575 269 b 568 181 575 215 572 199 b 275 -1 540 61 432 -1 l 86 -1 l 143 121 l 306 121 l 322 121 b 439 181 379 121 429 142 b 442 199 440 188 442 193 b 325 272 442 249 383 261 b 181 426 221 296 181 350 b 186 483 181 444 182 464 b 285 647 200 543 238 618 b 247 725 260 665 247 690 b 254 774 247 739 250 756 b 538 974 281 892 372 974 l 703 974 l 646 853 l 506 853 b 379 778 443 853 393 835 b 378 765 379 774 378 769 b 519 694 378 715 461 706 b 642 529 600 669 642 610 b 635 469 642 511 640 490 b 538 321 622 414 585 347 "},"¨":{"ha":549,"x_min":0,"x_max":0,"o":"m 364 903 b 418 851 396 903 418 881 b 417 838 418 847 418 843 b 333 772 408 803 371 772 b 278 825 301 772 278 796 b 279 838 278 829 278 833 b 364 903 288 874 326 903 m 593 903 b 647 851 625 903 647 881 b 646 838 647 847 647 843 b 563 772 638 803 600 772 b 507 825 531 772 507 796 b 508 838 507 829 507 833 b 593 903 517 874 556 903 "},"©":{"ha":796,"x_min":0,"x_max":0,"o":"m 549 986 b 879 651 728 986 879 836 b 544 317 879 464 728 317 b 218 650 369 317 218 467 b 549 986 218 836 369 986 m 549 913 b 296 650 411 913 296 794 b 544 389 296 507 411 389 b 800 651 686 389 800 503 b 549 913 800 794 685 913 m 550 851 b 699 788 607 851 660 829 l 643 733 b 550 771 618 756 585 771 b 429 654 482 771 429 718 b 550 538 429 589 482 538 b 640 572 585 538 617 550 l 699 522 b 550 456 660 481 607 456 b 350 654 435 456 350 544 b 550 851 350 763 435 851 "},"ª":{"ha":622,"x_min":0,"x_max":0,"o":"m 615 497 l 597 419 l 189 419 l 207 497 m 508 899 b 343 768 433 899 360 840 b 339 739 340 758 339 749 b 449 636 339 679 383 636 b 618 768 525 636 600 694 b 621 796 619 778 621 788 b 508 899 621 854 575 899 m 529 986 b 656 931 582 986 625 965 l 665 975 l 742 975 l 643 550 l 579 603 b 428 550 533 568 479 550 b 247 721 321 550 247 622 b 253 768 247 736 249 751 b 529 986 281 889 404 986 "},"«":{"ha":638,"x_min":0,"x_max":0,"o":"m 358 331 l 715 604 l 496 313 l 588 49 l 349 289 m 118 331 l 475 604 l 256 313 l 347 49 l 108 289 "},"¬":{"ha":808,"x_min":0,"x_max":0,"o":"m 794 140 l 674 139 l 674 360 l 157 360 l 157 475 l 794 475 "},"­":{"ha":711,"x_min":0,"x_max":0,"o":"m 121 371 l 763 371 l 735 253 l 93 253 "},"®":{"ha":796,"x_min":0,"x_max":0,"o":"m 543 683 l 547 683 b 622 728 601 683 622 706 b 543 776 619 760 603 776 l 500 776 l 500 683 m 544 850 b 707 728 661 850 707 801 b 582 622 707 672 674 628 l 703 458 l 625 458 l 506 613 l 500 613 l 500 458 l 421 458 l 421 850 m 549 913 b 296 650 411 913 296 794 b 544 389 296 507 411 389 b 800 651 686 389 800 503 b 549 913 800 794 685 913 m 549 986 b 879 651 728 986 879 836 b 544 317 879 464 728 317 b 218 650 369 317 218 467 b 549 986 218 836 369 986 "},"¯":{"ha":719,"x_min":0,"x_max":0,"o":"m 796 797 l 293 797 l 317 901 l 819 901 "},"°":{"ha":563,"x_min":0,"x_max":0,"o":"m 486 896 b 351 793 425 896 364 850 b 349 771 350 785 349 778 b 435 688 349 724 385 688 b 571 793 497 688 557 733 b 574 815 572 800 574 808 b 486 896 574 861 538 896 m 507 986 b 669 833 603 986 669 921 b 665 793 669 821 668 807 b 415 599 640 683 529 599 b 251 751 318 599 251 664 b 257 793 251 765 253 779 b 507 986 281 899 393 986 "},"±":{"ha":756,"x_min":0,"x_max":0,"o":"m 750 322 l 490 322 l 490 136 l 369 136 l 369 322 l 108 322 l 108 440 l 369 440 l 369 694 l 490 694 l 490 440 l 750 440 m 750 0 l 108 0 l 108 118 l 750 118 "},"²":{"ha":456,"x_min":0,"x_max":0,"o":"m 281 907 b 438 986 324 954 382 986 b 568 872 521 986 568 943 b 564 828 568 858 567 843 b 289 572 532 689 318 690 l 493 572 l 494 493 l 175 493 b 467 828 226 724 438 699 b 468 849 468 835 468 842 b 415 890 468 876 450 890 b 329 853 383 890 354 876 l 281 907 "},"³":{"ha":425,"x_min":0,"x_max":0,"o":"m 289 924 b 404 986 315 950 354 981 b 508 892 475 986 508 943 b 504 861 508 882 507 871 b 447 781 497 829 475 799 b 504 688 482 761 504 729 b 500 654 504 676 503 665 b 290 485 478 560 385 485 b 178 547 240 485 201 508 l 251 603 b 311 578 264 585 286 578 b 407 654 354 578 396 610 b 408 672 408 661 408 667 b 346 731 408 707 383 731 l 293 731 l 314 817 l 365 817 l 367 817 b 410 861 385 817 404 840 b 411 869 410 864 411 867 b 383 894 411 885 401 894 b 331 869 367 893 357 892 "},"´":{"ha":363,"x_min":0,"x_max":0,"o":"m 119 729 l 63 769 l 211 972 l 304 904 "},"µ":{"ha":858,"x_min":0,"x_max":0,"o":"m 438 -14 b 246 74 353 -14 290 19 b 215 -147 226 -8 215 -89 b 240 -260 215 -194 222 -233 l 146 -347 l 28 -347 l 253 625 l 375 625 l 301 318 b 297 274 299 303 297 288 b 467 111 297 181 367 111 b 729 318 585 111 704 204 l 803 625 l 919 625 l 772 -14 l 675 83 b 438 -14 618 31 519 -14 "},"¶":{"ha":806,"x_min":0,"x_max":0,"o":"m 204 697 b 540 972 249 893 376 972 l 922 972 l 665 -139 l 543 -139 l 771 850 l 669 850 l 442 -139 l 319 -139 l 449 422 l 413 422 b 192 604 279 422 192 474 b 204 697 192 632 196 663 "},"·":{"ha":342,"x_min":0,"x_max":0,"o":"m 282 557 b 364 486 326 557 364 525 b 282 417 364 449 326 417 b 201 486 238 417 201 449 b 282 557 201 525 238 557 "},"¸":{"ha":457,"x_min":0,"x_max":0,"o":"m 56 -190 b 144 -254 60 -233 96 -254 b 233 -183 189 -254 222 -228 b 235 -162 235 -176 235 -169 b 178 -110 235 -131 214 -110 l 129 -110 l 110 -110 l 181 1 l 258 1 l 229 -36 b 338 -150 294 -46 338 -89 b 335 -183 338 -161 336 -172 b 122 -347 313 -275 217 -347 b -1 -279 65 -347 21 -321 l 56 -190 "},"¹":{"ha":300,"x_min":0,"x_max":0,"o":"m 322 890 l 276 890 l 344 986 l 419 986 l 307 500 l 232 500 "},"º":{"ha":604,"x_min":0,"x_max":0,"o":"m 510 899 b 343 768 435 899 360 840 b 339 739 340 758 339 749 b 449 636 339 679 383 636 b 614 768 524 636 597 694 b 617 797 617 778 617 788 b 510 899 617 856 574 899 m 529 986 b 711 815 636 986 711 914 b 706 768 711 800 710 785 b 429 550 678 647 553 550 b 247 721 321 550 247 622 b 253 768 247 736 249 751 b 529 986 281 889 404 986 m 618 496 l 600 418 l 192 418 l 210 496 "},"»":{"ha":635,"x_min":0,"x_max":0,"o":"m 69 49 l 283 313 l 197 604 l 429 331 l 419 289 m 310 49 l 524 313 l 438 604 l 669 331 l 660 289 "},"¼":{"ha":960,"x_min":0,"x_max":0,"o":"m 314 888 l 268 888 l 336 986 l 418 986 l 304 492 l 222 492 m 975 971 l 143 1 l 38 1 l 869 971 m 696 492 l 779 492 l 732 286 l 846 286 l 893 492 l 976 492 l 929 286 l 994 286 l 975 206 l 910 206 l 863 -3 l 779 -3 l 826 206 l 629 206 "},"½":{"ha":896,"x_min":0,"x_max":0,"o":"m 642 422 b 800 503 685 471 744 503 b 931 388 883 503 931 460 b 925 342 931 374 929 358 b 649 81 892 200 678 201 l 853 81 l 854 0 l 535 0 b 828 342 588 235 797 210 b 831 364 829 350 831 357 b 778 407 831 392 813 407 b 690 367 746 407 715 392 l 642 422 m 315 888 l 269 888 l 338 986 l 419 986 l 306 492 l 224 492 m 976 971 l 144 0 l 39 0 l 871 971 "},"¾":{"ha":1021,"x_min":0,"x_max":0,"o":"m 265 924 b 381 986 292 950 331 981 b 483 890 451 986 483 943 b 481 858 483 881 483 869 b 422 776 472 826 450 796 b 479 682 457 757 479 724 b 475 647 479 671 478 660 b 263 472 451 550 357 472 b 151 538 213 472 176 497 l 226 594 b 285 568 239 576 260 568 b 382 647 328 568 371 603 b 383 665 383 654 383 660 b 322 725 383 700 358 725 l 269 725 l 289 814 l 340 814 l 342 814 b 386 858 361 814 379 838 l 386 867 b 358 893 386 883 378 893 b 306 868 343 892 333 890 m 1035 968 l 203 1 l 97 1 l 929 968 m 756 490 l 839 490 l 792 285 l 906 285 l 953 490 l 1036 490 l 989 285 l 1054 285 l 1036 204 l 971 204 l 924 -3 l 840 -3 l 888 204 l 690 204 "},"¿":{"ha":644,"x_min":0,"x_max":0,"o":"m 507 479 b 442 543 468 479 442 507 b 443 560 442 549 442 554 b 543 639 453 603 499 639 b 607 576 582 639 607 613 b 606 560 607 571 607 565 b 507 479 596 517 551 479 m 308 -347 b 39 -90 149 -347 39 -237 b 47 -18 39 -67 42 -43 b 403 304 85 147 239 281 l 415 364 l 535 364 l 494 185 b 432 189 472 188 458 189 b 174 -18 315 189 200 96 b 168 -64 169 -33 168 -49 b 338 -224 168 -156 236 -224 b 510 -160 399 -224 460 -200 l 575 -244 b 308 -347 499 -310 403 -347 "},"À":{"ha":1192,"x_min":0,"x_max":0,"o":"m 1054 540 l 1028 429 l 358 429 l 385 540 m 1092 483 b 1101 567 1099 513 1101 540 b 793 861 1101 735 976 861 b 319 483 581 861 368 692 l 208 0 l 85 0 l 197 485 b 822 986 261 761 540 986 b 1229 596 1065 986 1229 819 b 1217 485 1229 560 1225 524 l 1104 0 l 981 0 m 832 1285 l 981 1082 l 924 1042 l 739 1217 "},"Á":{"ha":1192,"x_min":0,"x_max":0,"o":"m 1054 540 l 1028 429 l 358 429 l 385 540 m 1092 483 b 1101 567 1099 513 1101 540 b 793 861 1101 735 976 861 b 319 483 581 861 368 692 l 208 0 l 85 0 l 197 485 b 822 986 261 761 540 986 b 1229 596 1065 986 1229 819 b 1217 485 1229 560 1225 524 l 1104 0 l 981 0 m 796 1042 l 739 1082 l 888 1285 l 981 1217 "},"Â":{"ha":1192,"x_min":0,"x_max":0,"o":"m 1054 540 l 1028 429 l 358 429 l 385 540 m 1092 483 b 1101 567 1099 513 1101 540 b 793 861 1101 735 976 861 b 319 483 581 861 368 692 l 208 0 l 85 0 l 197 485 b 822 986 261 761 540 986 b 1229 596 1065 986 1229 819 b 1217 485 1229 560 1225 524 l 1104 0 l 981 0 m 889 1282 l 994 1082 l 928 1042 l 854 1131 l 743 1042 l 696 1082 "},"Ã":{"ha":1192,"x_min":0,"x_max":0,"o":"m 1054 540 l 1028 429 l 358 429 l 385 540 m 1092 483 b 1101 567 1099 513 1101 540 b 793 861 1101 735 976 861 b 319 483 581 861 368 692 l 208 0 l 85 0 l 197 485 b 822 986 261 761 540 986 b 1229 596 1065 986 1229 819 b 1217 485 1229 560 1225 524 l 1104 0 l 981 0 m 831 1074 b 757 1113 813 1088 783 1110 b 644 1042 708 1110 689 1081 l 589 1088 b 771 1199 642 1139 692 1196 b 872 1168 811 1199 842 1190 b 947 1129 893 1151 919 1129 l 950 1129 b 1054 1200 985 1129 1019 1168 l 1119 1156 b 929 1042 1056 1092 978 1043 l 922 1042 b 831 1074 888 1042 860 1051 "},"Ä":{"ha":1192,"x_min":0,"x_max":0,"o":"m 1054 540 l 1028 429 l 358 429 l 385 540 m 1092 483 b 1101 567 1099 513 1101 540 b 793 861 1101 735 976 861 b 319 483 581 861 368 692 l 208 0 l 85 0 l 197 485 b 822 986 261 761 540 986 b 1229 596 1065 986 1229 819 b 1217 485 1229 560 1225 524 l 1104 0 l 981 0 m 751 1172 b 806 1121 783 1172 806 1150 b 804 1107 806 1117 806 1113 b 721 1042 796 1072 758 1042 b 665 1094 689 1042 665 1065 b 667 1107 665 1099 667 1103 b 751 1172 675 1143 714 1172 m 981 1172 b 1035 1121 1013 1172 1035 1150 b 1033 1107 1035 1117 1035 1113 b 950 1042 1025 1072 988 1042 b 894 1094 918 1042 894 1065 b 896 1107 894 1099 896 1103 b 981 1172 904 1143 943 1172 "},"Å":{"ha":1192,"x_min":0,"x_max":0,"o":"m 881 1124 b 956 1179 915 1124 949 1149 b 957 1192 957 1183 957 1188 b 907 1236 957 1217 938 1236 b 831 1179 872 1236 839 1211 b 829 1168 831 1175 829 1171 b 881 1124 829 1143 850 1124 m 869 1072 b 774 1157 813 1072 774 1110 b 775 1179 774 1164 774 1172 b 918 1286 789 1239 853 1286 b 1015 1201 975 1286 1015 1250 b 1013 1179 1015 1194 1015 1186 b 869 1072 1000 1121 935 1072 m 1056 540 l 1029 429 l 360 429 l 386 540 m 1093 483 b 1103 567 1100 513 1103 540 b 794 861 1103 735 978 861 b 321 483 582 861 369 692 l 210 0 l 86 0 l 199 485 b 824 986 263 761 542 986 b 1231 596 1067 986 1231 819 b 1218 485 1231 560 1226 524 l 1106 0 l 982 0 "},"Æ":{"ha":1404,"x_min":0,"x_max":0,"o":"m 822 986 b 1067 915 918 986 1001 960 b 1322 971 1147 951 1233 971 l 1586 971 l 1558 850 l 1296 850 b 842 539 1099 850 907 718 l 1365 539 l 1339 429 l 814 429 b 813 397 814 418 813 408 b 1128 119 813 235 942 119 l 1390 119 l 1363 0 l 1099 0 b 692 371 856 0 692 153 b 694 429 692 389 692 410 l 358 429 l 385 539 l 719 539 b 940 836 758 658 839 761 b 793 861 897 853 847 861 b 319 483 581 861 368 692 l 208 0 l 85 0 l 197 485 b 822 986 261 761 540 986 "},"Ç":{"ha":875,"x_min":0,"x_max":0,"o":"m 1028 850 l 765 850 b 297 485 553 850 344 693 b 288 401 290 456 288 428 b 597 118 288 235 414 118 l 860 118 l 832 -3 l 604 -3 l 588 -24 b 693 -140 651 -35 693 -78 b 688 -178 693 -153 692 -165 b 475 -347 667 -272 569 -347 b 351 -276 418 -347 374 -319 l 410 -185 b 497 -250 414 -228 449 -250 b 586 -178 542 -250 576 -222 b 589 -154 589 -169 589 -162 b 532 -101 589 -121 569 -101 l 464 -101 l 533 11 b 157 379 307 24 157 172 b 169 485 157 413 160 449 b 793 972 233 761 511 972 l 1057 972 "},"È":{"ha":878,"x_min":0,"x_max":0,"o":"m 1029 851 l 767 851 b 311 542 569 851 378 721 l 835 542 l 810 432 l 285 432 b 283 400 283 421 283 411 b 597 121 283 238 413 121 l 860 121 l 832 0 l 568 0 b 157 378 325 0 157 157 b 169 486 157 413 161 449 b 793 972 233 763 511 972 l 1057 972 m 681 1285 l 829 1082 l 772 1042 l 588 1217 "},"É":{"ha":878,"x_min":0,"x_max":0,"o":"m 1029 851 l 767 851 b 311 542 569 851 378 721 l 835 542 l 810 432 l 285 432 b 283 400 283 421 283 411 b 597 121 283 238 413 121 l 860 121 l 832 0 l 568 0 b 157 378 325 0 157 157 b 169 486 157 413 161 449 b 793 972 233 763 511 972 l 1057 972 m 724 1042 l 667 1082 l 815 1285 l 908 1217 "},"Ê":{"ha":878,"x_min":0,"x_max":0,"o":"m 1029 851 l 767 851 b 311 542 569 851 378 721 l 835 542 l 810 432 l 285 432 b 283 400 283 421 283 411 b 597 121 283 238 413 121 l 860 121 l 832 0 l 568 0 b 157 378 325 0 157 157 b 169 486 157 413 161 449 b 793 972 233 763 511 972 l 1057 972 m 824 1282 l 928 1082 l 863 1042 l 789 1131 l 678 1042 l 629 1082 "},"Ë":{"ha":878,"x_min":0,"x_max":0,"o":"m 1029 851 l 767 851 b 311 542 569 851 378 721 l 835 542 l 810 432 l 285 432 b 283 400 283 421 283 411 b 597 121 283 238 413 121 l 860 121 l 832 0 l 568 0 b 157 378 325 0 157 157 b 169 486 157 413 161 449 b 793 972 233 763 511 972 l 1057 972 m 675 1172 b 729 1121 707 1172 729 1150 b 728 1107 729 1117 729 1113 b 644 1042 719 1072 682 1042 b 589 1094 613 1042 589 1065 b 590 1107 589 1099 589 1103 b 675 1172 599 1143 638 1172 m 904 1172 b 958 1121 936 1172 958 1150 b 957 1107 958 1117 958 1113 b 874 1042 949 1072 911 1042 b 818 1094 842 1042 818 1065 b 819 1107 818 1099 818 1103 b 904 1172 828 1143 867 1172 "},"Ì":{"ha":479,"x_min":0,"x_max":0,"o":"m 632 972 l 604 851 l 496 851 l 326 121 l 438 121 l 410 0 l 71 0 l 99 121 l 206 121 l 375 851 l 267 851 l 294 972 m 476 1285 l 625 1082 l 568 1042 l 383 1217 "},"Í":{"ha":479,"x_min":0,"x_max":0,"o":"m 632 972 l 604 851 l 496 851 l 326 121 l 438 121 l 410 0 l 71 0 l 99 121 l 206 121 l 375 851 l 267 851 l 294 972 m 440 1042 l 383 1082 l 532 1285 l 625 1217 "},"Î":{"ha":479,"x_min":0,"x_max":0,"o":"m 632 972 l 604 851 l 496 851 l 326 121 l 438 121 l 410 0 l 71 0 l 99 121 l 206 121 l 375 851 l 267 851 l 294 972 m 532 1282 l 638 1082 l 571 1042 l 497 1131 l 386 1042 l 339 1082 "},"Ï":{"ha":479,"x_min":0,"x_max":0,"o":"m 632 972 l 604 851 l 496 851 l 326 121 l 438 121 l 410 0 l 71 0 l 99 121 l 206 121 l 375 851 l 267 851 l 294 972 m 394 1172 b 450 1121 428 1172 450 1150 b 449 1107 450 1117 449 1113 b 365 1042 440 1072 403 1042 b 308 1094 332 1042 308 1065 b 311 1107 308 1099 310 1103 b 394 1172 319 1143 357 1172 m 624 1172 b 679 1121 657 1172 679 1150 b 678 1107 679 1117 678 1113 b 594 1042 669 1072 632 1042 b 538 1094 561 1042 538 1065 b 540 1107 538 1099 539 1103 b 624 1172 549 1143 586 1172 "},"Ð":{"ha":958,"x_min":0,"x_max":0,"o":"m 604 542 l 579 431 l 349 431 l 276 121 l 414 121 b 885 486 626 121 836 278 b 894 568 890 514 894 542 b 583 851 894 733 767 851 l 446 851 l 374 542 m 613 972 b 1024 594 856 972 1024 815 b 1011 486 1024 560 1019 524 b 388 0 947 210 669 0 l 126 0 l 226 431 l 157 431 l 182 542 l 251 542 l 351 972 "},"Ñ":{"ha":1192,"x_min":0,"x_max":0,"o":"m 1092 483 b 1101 567 1099 513 1101 540 b 793 861 1101 735 976 861 b 319 483 581 861 368 692 l 208 0 l 85 0 l 197 485 b 822 986 261 761 540 986 b 1229 596 1065 986 1229 819 b 1217 485 1229 560 1225 524 l 1104 0 l 981 0 m 831 1074 b 757 1113 813 1088 783 1110 b 644 1042 708 1110 689 1081 l 589 1088 b 771 1199 642 1139 692 1196 b 872 1168 811 1199 842 1190 b 947 1129 893 1151 919 1129 l 950 1129 b 1054 1200 985 1129 1019 1168 l 1119 1156 b 929 1042 1056 1092 978 1043 l 922 1042 b 831 1074 888 1042 860 1051 "},"Ò":{"ha":1142,"x_min":0,"x_max":0,"o":"m 768 863 b 297 488 556 863 346 696 b 288 404 290 460 288 432 b 594 111 288 238 411 111 b 1067 488 807 111 1019 281 b 1076 571 1074 517 1076 544 b 768 863 1076 739 951 863 m 797 986 b 1207 596 1040 986 1207 819 b 1194 486 1207 561 1203 524 b 567 -14 1131 211 849 -14 b 158 376 324 -14 158 154 b 171 486 158 411 163 449 b 797 986 235 763 515 986 m 808 1285 l 957 1082 l 900 1042 l 715 1217 "},"Ó":{"ha":1142,"x_min":0,"x_max":0,"o":"m 768 863 b 297 488 556 863 346 696 b 288 404 290 460 288 432 b 594 111 288 238 411 111 b 1067 488 807 111 1019 281 b 1076 571 1074 517 1076 544 b 768 863 1076 739 951 863 m 797 986 b 1207 596 1040 986 1207 819 b 1194 486 1207 561 1203 524 b 567 -14 1131 211 849 -14 b 158 376 324 -14 158 154 b 171 486 158 411 163 449 b 797 986 235 763 515 986 m 772 1042 l 715 1082 l 864 1285 l 957 1217 "},"Ô":{"ha":1142,"x_min":0,"x_max":0,"o":"m 768 863 b 297 488 556 863 346 696 b 288 404 290 460 288 432 b 594 111 288 238 411 111 b 1067 488 807 111 1019 281 b 1076 571 1074 517 1076 544 b 768 863 1076 739 951 863 m 797 986 b 1207 596 1040 986 1207 819 b 1194 486 1207 561 1203 524 b 567 -14 1131 211 849 -14 b 158 376 324 -14 158 154 b 171 486 158 411 163 449 b 797 986 235 763 515 986 m 864 1282 l 969 1082 l 903 1042 l 829 1131 l 718 1042 l 671 1082 "},"Õ":{"ha":1142,"x_min":0,"x_max":0,"o":"m 768 863 b 297 488 556 863 346 696 b 288 404 290 460 288 432 b 594 111 288 238 411 111 b 1067 488 807 111 1019 281 b 1076 571 1074 517 1076 544 b 768 863 1076 739 951 863 m 797 986 b 1207 596 1040 986 1207 819 b 1194 486 1207 561 1203 524 b 567 -14 1131 211 849 -14 b 158 376 324 -14 158 154 b 171 486 158 411 163 449 b 797 986 235 763 515 986 m 807 1074 b 732 1113 788 1088 760 1110 b 621 1042 685 1110 664 1081 l 564 1088 b 747 1199 618 1139 667 1196 b 849 1168 788 1199 817 1190 b 922 1129 868 1151 896 1129 l 925 1129 b 1031 1200 960 1129 996 1168 l 1096 1156 b 906 1042 1032 1092 954 1043 l 899 1042 b 807 1074 863 1042 836 1051 "},"Ö":{"ha":1142,"x_min":0,"x_max":0,"o":"m 768 863 b 297 488 556 863 346 696 b 288 404 290 460 288 432 b 594 111 288 238 411 111 b 1067 488 807 111 1019 281 b 1076 571 1074 517 1076 544 b 768 863 1076 739 951 863 m 797 986 b 1207 596 1040 986 1207 819 b 1194 486 1207 561 1203 524 b 567 -14 1131 211 849 -14 b 158 376 324 -14 158 154 b 171 486 158 411 163 449 b 797 986 235 763 515 986 m 728 1172 b 782 1121 760 1172 782 1150 b 781 1107 782 1117 782 1113 b 697 1042 772 1072 735 1042 b 642 1094 664 1042 642 1065 b 643 1107 642 1099 642 1103 b 728 1172 651 1143 690 1172 m 957 1172 b 1011 1121 989 1172 1011 1150 b 1010 1107 1011 1117 1011 1113 b 926 1042 1001 1072 964 1042 b 871 1094 893 1042 871 1065 b 872 1107 871 1099 871 1103 b 957 1172 881 1143 919 1172 "},"×":{"ha":664,"x_min":0,"x_max":0,"o":"m 588 54 l 404 229 l 221 54 l 136 135 l 319 311 l 135 488 l 219 569 l 404 392 l 589 569 l 674 488 l 489 311 l 672 135 "},"Ø":{"ha":1144,"x_min":0,"x_max":0,"o":"m 951 818 b 768 863 900 847 838 863 b 297 488 556 863 346 696 b 288 403 290 458 288 429 b 357 207 288 325 313 258 m 418 157 b 594 111 467 128 526 111 b 1067 488 807 111 1019 281 b 1078 579 1074 519 1078 550 b 1013 768 1078 653 1054 718 m 797 986 b 1043 915 893 986 978 963 l 1096 969 l 1201 969 l 1104 863 b 1207 596 1169 794 1207 701 b 1194 486 1207 561 1203 524 b 567 -14 1131 211 849 -14 b 326 60 472 -14 390 14 l 272 4 l 167 4 l 264 110 b 158 378 196 178 158 272 b 171 486 158 413 163 449 b 797 986 235 763 515 986 "},"Ù":{"ha":1200,"x_min":0,"x_max":0,"o":"m 1336 972 l 1224 488 b 597 -14 1160 211 879 -14 b 190 376 354 -14 190 153 b 203 488 190 413 194 449 l 315 972 l 439 972 l 326 489 b 317 406 321 460 317 432 b 626 113 317 238 443 113 b 1099 489 839 113 1051 281 l 1211 972 m 838 1285 l 986 1082 l 929 1042 l 744 1217 "},"Ú":{"ha":1200,"x_min":0,"x_max":0,"o":"m 1336 972 l 1224 488 b 597 -14 1160 211 879 -14 b 190 376 354 -14 190 153 b 203 488 190 413 194 449 l 315 972 l 439 972 l 326 489 b 317 406 321 460 317 432 b 626 113 317 238 443 113 b 1099 489 839 113 1051 281 l 1211 972 m 801 1042 l 744 1082 l 893 1285 l 986 1217 "},"Û":{"ha":1200,"x_min":0,"x_max":0,"o":"m 1336 972 l 1224 488 b 597 -14 1160 211 879 -14 b 190 376 354 -14 190 153 b 203 488 190 413 194 449 l 315 972 l 439 972 l 326 489 b 317 406 321 460 317 432 b 626 113 317 238 443 113 b 1099 489 839 113 1051 281 l 1211 972 m 893 1282 l 999 1082 l 932 1042 l 858 1131 l 747 1042 l 700 1082 "},"Ü":{"ha":1200,"x_min":0,"x_max":0,"o":"m 1336 972 l 1224 488 b 597 -14 1160 211 879 -14 b 190 376 354 -14 190 153 b 203 488 190 413 194 449 l 315 972 l 439 972 l 326 489 b 317 406 321 460 317 432 b 626 113 317 238 443 113 b 1099 489 839 113 1051 281 l 1211 972 m 756 1172 b 811 1121 789 1172 811 1150 b 810 1107 811 1117 810 1113 b 726 1042 801 1072 764 1042 b 669 1094 693 1042 669 1065 b 672 1107 669 1099 671 1103 b 756 1172 681 1143 718 1172 m 985 1172 b 1040 1121 1018 1172 1040 1150 b 1039 1107 1040 1117 1039 1113 b 956 1042 1031 1072 993 1042 b 899 1094 922 1042 899 1065 b 901 1107 899 1099 900 1103 b 985 1172 910 1143 947 1172 "},"Ý":{"ha":807,"x_min":0,"x_max":0,"o":"m 1024 972 l 161 0 l 32 0 l 461 489 l 257 972 l 392 972 l 558 589 l 897 972 m 615 1042 l 558 1082 l 707 1285 l 800 1217 "},"Þ":{"ha":782,"x_min":0,"x_max":0,"o":"m 449 354 b 719 501 622 354 701 422 b 724 544 722 517 724 532 b 519 660 724 624 672 658 l 382 660 l 311 354 m 454 972 l 410 781 l 549 781 b 864 576 774 781 864 703 b 854 501 864 553 861 528 b 422 238 819 354 692 238 l 283 238 l 229 0 l 108 0 l 333 972 "},"ß":{"ha":890,"x_min":0,"x_max":0,"o":"m 256 638 b 654 986 308 865 488 986 b 913 778 826 983 913 901 b 901 699 913 753 908 726 b 767 508 883 625 840 554 b 890 339 853 475 890 418 b 882 268 890 317 886 293 b 449 0 846 122 718 0 l 357 0 l 385 119 l 475 119 b 747 268 649 119 728 189 b 750 310 749 283 750 297 b 499 431 750 414 660 431 l 457 431 l 482 543 l 488 543 b 767 699 664 543 749 619 b 771 742 769 714 771 728 b 624 863 771 815 726 861 b 374 615 519 861 410 769 l 232 0 l 108 0 "},"à":{"ha":840,"x_min":0,"x_max":0,"o":"m 526 515 b 268 311 410 515 293 424 b 263 267 264 296 263 281 b 432 107 263 175 331 107 b 694 311 550 107 668 199 b 699 354 697 326 699 340 b 526 515 699 446 628 515 m 554 639 b 750 553 636 639 706 606 l 768 625 l 878 625 l 729 -14 l 638 65 b 404 -14 569 17 485 -14 b 133 240 243 -14 133 94 b 142 311 133 263 136 286 b 554 639 183 492 368 639 m 568 979 l 717 776 l 660 736 l 475 911 "},"á":{"ha":840,"x_min":0,"x_max":0,"o":"m 526 515 b 268 311 410 515 293 424 b 263 267 264 296 263 281 b 432 107 263 175 331 107 b 694 311 550 107 668 199 b 699 354 697 326 699 340 b 526 515 699 446 628 515 m 554 639 b 750 553 636 639 706 606 l 768 625 l 878 625 l 729 -14 l 638 65 b 404 -14 569 17 485 -14 b 133 240 243 -14 133 94 b 142 311 133 263 136 286 b 554 639 183 492 368 639 m 532 736 l 475 776 l 624 979 l 717 911 "},"â":{"ha":840,"x_min":0,"x_max":0,"o":"m 526 515 b 268 311 410 515 293 424 b 263 267 264 296 263 281 b 432 107 263 175 331 107 b 694 311 550 107 668 199 b 699 354 697 326 699 340 b 526 515 699 446 628 515 m 554 639 b 750 553 636 639 706 606 l 768 625 l 878 625 l 729 -14 l 638 65 b 404 -14 569 17 485 -14 b 133 240 243 -14 133 94 b 142 311 133 263 136 286 b 554 639 183 492 368 639 m 625 976 l 729 776 l 664 736 l 589 825 l 479 736 l 431 776 "},"ã":{"ha":840,"x_min":0,"x_max":0,"o":"m 526 515 b 268 311 410 515 293 424 b 263 267 264 296 263 281 b 432 107 263 175 331 107 b 694 311 550 107 668 199 b 699 354 697 326 699 340 b 526 515 699 446 628 515 m 554 639 b 750 553 636 639 706 606 l 768 625 l 878 625 l 729 -14 l 638 65 b 404 -14 569 17 485 -14 b 133 240 243 -14 133 94 b 142 311 133 263 136 286 b 554 639 183 492 368 639 m 567 768 b 493 807 547 782 519 804 b 381 736 444 804 424 775 l 324 782 b 507 893 378 833 426 890 b 608 863 547 893 578 885 b 683 824 629 846 656 824 l 685 824 b 790 894 719 824 756 863 l 856 850 b 665 736 792 786 714 738 l 658 736 b 567 768 622 736 596 746 "},"ä":{"ha":840,"x_min":0,"x_max":0,"o":"m 526 515 b 268 311 410 515 293 424 b 263 267 264 296 263 281 b 432 107 263 175 331 107 b 694 311 550 107 668 199 b 699 354 697 326 699 340 b 526 515 699 446 628 515 m 554 639 b 750 553 636 639 706 606 l 768 625 l 878 625 l 729 -14 l 638 65 b 404 -14 569 17 485 -14 b 133 240 243 -14 133 94 b 142 311 133 263 136 286 b 554 639 183 492 368 639 m 488 867 b 542 815 519 867 542 844 b 540 801 542 811 542 807 b 457 736 532 767 494 736 b 401 789 425 736 401 760 b 403 801 401 793 401 797 b 488 867 411 838 450 867 m 717 867 b 771 815 749 867 771 844 b 769 801 771 811 771 807 b 686 736 761 767 724 736 b 631 789 654 736 631 760 b 632 801 631 793 631 797 b 717 867 640 838 679 867 "},"å":{"ha":840,"x_min":0,"x_max":0,"o":"m 526 515 b 268 311 410 515 293 424 b 263 267 264 296 263 281 b 432 107 263 175 331 107 b 694 311 550 107 668 199 b 699 354 697 326 699 340 b 526 515 699 446 628 515 m 554 639 b 750 553 636 639 706 606 l 768 625 l 878 625 l 729 -14 l 638 65 b 404 -14 569 17 485 -14 b 133 240 243 -14 133 94 b 142 311 133 263 136 286 b 554 639 183 492 368 639 m 582 788 b 657 843 617 788 650 813 b 658 856 658 847 658 851 b 608 900 658 881 639 900 b 532 843 574 900 540 875 b 531 832 532 839 531 836 b 582 788 531 807 551 788 m 571 736 b 475 821 514 736 475 774 b 476 843 475 828 475 836 b 619 950 490 903 554 950 b 717 865 676 950 717 914 b 714 843 717 858 717 850 b 571 736 701 785 636 736 "},"æ":{"ha":1269,"x_min":0,"x_max":0,"o":"m 1167 474 b 1068 515 1157 499 1124 515 b 804 311 949 515 829 424 b 800 278 801 300 800 289 b 801 258 800 272 800 265 m 526 515 b 268 311 410 515 293 424 b 263 267 264 296 263 281 b 432 107 263 175 331 107 b 694 311 550 107 668 199 b 699 354 697 326 699 340 b 526 515 699 446 628 515 m 554 639 b 750 553 636 639 706 606 l 767 625 l 876 625 l 858 546 b 1096 639 929 603 1008 639 b 1336 461 1226 639 1308 563 l 833 168 b 974 107 861 131 911 107 b 1139 165 1032 107 1090 129 l 1213 88 b 946 -14 1135 26 1040 -14 b 750 79 858 -14 796 22 l 729 -14 l 638 65 b 404 -14 569 17 485 -14 b 133 240 243 -14 133 94 b 142 311 133 263 136 286 b 554 639 183 492 368 639 "},"ç":{"ha":696,"x_min":0,"x_max":0,"o":"m 554 639 b 774 535 649 639 726 600 l 669 451 b 526 515 636 490 588 515 b 267 308 410 515 293 422 b 261 263 264 293 261 278 b 431 101 261 171 329 101 b 597 161 489 101 549 125 l 669 83 b 419 -21 596 22 507 -18 l 413 -26 b 518 -143 476 -36 518 -81 b 514 -179 518 -154 517 -167 b 301 -347 493 -274 396 -347 b 178 -276 244 -347 200 -321 l 236 -186 b 324 -251 240 -229 275 -251 b 413 -179 368 -251 403 -224 b 415 -157 415 -171 415 -164 b 358 -103 415 -124 394 -103 l 310 -103 l 290 -103 l 349 -14 b 132 235 217 6 132 106 b 140 308 132 258 135 283 b 554 639 182 490 368 639 "},"è":{"ha":729,"x_min":0,"x_max":0,"o":"m 625 475 b 526 517 615 499 582 517 b 268 313 410 517 294 425 b 260 260 264 294 261 275 m 554 639 b 794 461 685 639 767 563 l 292 169 b 432 108 319 132 369 108 b 599 167 490 108 550 131 l 671 89 b 404 -14 593 26 499 -14 b 133 242 243 -14 133 94 b 142 313 133 264 136 288 b 554 639 183 492 368 639 m 546 979 l 694 776 l 638 736 l 453 911 "},"é":{"ha":729,"x_min":0,"x_max":0,"o":"m 625 475 b 526 517 615 499 582 517 b 268 313 410 517 294 425 b 260 260 264 294 261 275 m 554 639 b 794 461 685 639 767 563 l 292 169 b 432 108 319 132 369 108 b 599 167 490 108 550 131 l 671 89 b 404 -14 593 26 499 -14 b 133 242 243 -14 133 94 b 142 313 133 264 136 288 b 554 639 183 492 368 639 m 510 736 l 453 776 l 601 979 l 694 911 "},"ê":{"ha":729,"x_min":0,"x_max":0,"o":"m 625 475 b 526 517 615 499 582 517 b 268 313 410 517 294 425 b 260 260 264 294 261 275 m 554 639 b 794 461 685 639 767 563 l 292 169 b 432 108 319 132 369 108 b 599 167 490 108 550 131 l 671 89 b 404 -14 593 26 499 -14 b 133 242 243 -14 133 94 b 142 313 133 264 136 288 b 554 639 183 492 368 639 m 603 976 l 707 776 l 642 736 l 567 825 l 457 736 l 408 776 "},"ë":{"ha":729,"x_min":0,"x_max":0,"o":"m 625 475 b 526 517 615 499 582 517 b 268 313 410 517 294 425 b 260 260 264 294 261 275 m 554 639 b 794 461 685 639 767 563 l 292 169 b 432 108 319 132 369 108 b 599 167 490 108 550 131 l 671 89 b 404 -14 593 26 499 -14 b 133 242 243 -14 133 94 b 142 313 133 264 136 288 b 554 639 183 492 368 639 m 465 867 b 519 815 497 867 519 844 b 518 801 519 811 519 807 b 435 736 510 767 472 736 b 379 789 403 736 379 760 b 381 801 379 793 379 797 b 465 867 389 838 428 867 m 694 867 b 749 815 726 867 749 844 b 747 801 749 811 749 807 b 664 736 739 767 701 736 b 608 789 632 736 608 760 b 610 801 608 793 608 797 b 694 867 618 838 657 867 "},"ì":{"ha":338,"x_min":0,"x_max":0,"o":"m 374 625 l 229 0 l 108 0 l 253 625 m 335 979 l 483 776 l 426 736 l 242 911 "},"í":{"ha":338,"x_min":0,"x_max":0,"o":"m 374 625 l 229 0 l 108 0 l 253 625 m 299 736 l 242 776 l 390 979 l 483 911 "},"î":{"ha":338,"x_min":0,"x_max":0,"o":"m 374 625 l 229 0 l 108 0 l 253 625 m 390 976 l 496 776 l 429 736 l 356 825 l 244 736 l 197 776 "},"ï":{"ha":338,"x_min":0,"x_max":0,"o":"m 374 625 l 229 0 l 108 0 l 253 625 m 254 867 b 308 815 286 867 308 844 b 307 801 308 811 308 807 b 224 736 299 767 261 736 b 168 789 190 736 168 760 b 169 801 168 793 168 797 b 254 867 178 838 217 867 m 483 867 b 538 815 515 867 538 844 b 536 801 538 811 538 807 b 453 736 528 767 490 736 b 397 789 419 736 397 760 b 399 801 397 793 397 797 b 483 867 407 838 446 867 "},"ð":{"ha":818,"x_min":0,"x_max":0,"o":"m 526 515 b 269 317 410 515 296 431 b 264 271 265 301 264 286 b 432 110 264 179 332 110 b 692 317 549 110 665 203 b 696 361 694 332 696 347 b 526 515 696 451 626 515 m 554 639 b 610 628 572 639 596 636 l 560 729 l 460 667 l 413 761 l 511 819 l 464 918 l 576 986 l 625 888 l 724 946 l 772 851 l 672 792 b 825 386 763 604 825 497 b 818 317 825 363 824 340 b 404 -14 775 135 590 -14 b 133 244 243 -14 133 97 b 143 317 133 267 136 292 b 554 639 185 499 368 639 "},"ñ":{"ha":871,"x_min":0,"x_max":0,"o":"m 590 639 b 860 383 751 639 860 529 b 851 311 860 360 857 336 l 779 0 l 656 0 l 728 311 b 733 356 731 326 733 342 b 563 517 733 449 663 517 b 300 311 444 517 326 425 l 228 0 l 108 0 l 253 625 l 372 625 l 353 542 b 590 639 411 596 508 639 m 610 768 b 536 807 590 782 563 804 b 424 736 488 804 467 775 l 367 782 b 550 893 421 833 469 890 b 651 863 590 893 621 885 b 726 824 672 846 699 824 l 728 824 b 833 894 763 824 799 863 l 899 850 b 708 736 835 786 757 738 l 701 736 b 610 768 665 736 639 746 "},"ò":{"ha":817,"x_min":0,"x_max":0,"o":"m 526 517 b 268 313 410 517 294 425 b 263 267 264 297 263 282 b 432 108 263 175 332 108 b 690 313 549 108 664 199 b 696 357 693 328 696 343 b 526 517 696 449 626 517 m 554 639 b 825 383 715 639 825 529 b 817 313 825 361 822 336 b 404 -14 775 132 590 -14 b 133 242 243 -14 133 94 b 142 313 133 264 136 288 b 554 639 183 492 368 639 m 574 979 l 722 776 l 665 736 l 481 911 "},"ó":{"ha":817,"x_min":0,"x_max":0,"o":"m 526 517 b 268 313 410 517 294 425 b 263 267 264 297 263 282 b 432 108 263 175 332 108 b 690 313 549 108 664 199 b 696 357 693 328 696 343 b 526 517 696 449 626 517 m 554 639 b 825 383 715 639 825 529 b 817 313 825 361 822 336 b 404 -14 775 132 590 -14 b 133 242 243 -14 133 94 b 142 313 133 264 136 288 b 554 639 183 492 368 639 m 538 736 l 481 776 l 629 979 l 722 911 "},"ô":{"ha":817,"x_min":0,"x_max":0,"o":"m 526 517 b 268 313 410 517 294 425 b 263 267 264 297 263 282 b 432 108 263 175 332 108 b 690 313 549 108 664 199 b 696 357 693 328 696 343 b 526 517 696 449 626 517 m 554 639 b 825 383 715 639 825 529 b 817 313 825 361 822 336 b 404 -14 775 132 590 -14 b 133 242 243 -14 133 94 b 142 313 133 264 136 288 b 554 639 183 492 368 639 m 631 976 l 736 776 l 669 736 l 596 825 l 485 736 l 438 776 "},"õ":{"ha":817,"x_min":0,"x_max":0,"o":"m 526 517 b 268 313 410 517 294 425 b 263 267 264 297 263 282 b 432 108 263 175 332 108 b 690 313 549 108 664 199 b 696 357 693 328 696 343 b 526 517 696 449 626 517 m 554 639 b 825 383 715 639 825 529 b 817 313 825 361 822 336 b 404 -14 775 132 590 -14 b 133 242 243 -14 133 94 b 142 313 133 264 136 288 b 554 639 183 492 368 639 m 574 768 b 499 807 554 782 526 804 b 386 736 451 804 431 775 l 331 782 b 513 893 383 833 433 890 b 614 863 553 893 583 885 b 689 824 635 846 663 824 l 692 824 b 797 894 726 824 761 863 l 861 850 b 671 736 799 786 721 738 l 665 736 b 574 768 629 736 601 746 "},"ö":{"ha":817,"x_min":0,"x_max":0,"o":"m 526 517 b 268 313 410 517 294 425 b 263 267 264 297 263 282 b 432 108 263 175 332 108 b 690 313 549 108 664 199 b 696 357 693 328 696 343 b 526 517 696 449 626 517 m 554 639 b 825 383 715 639 825 529 b 817 313 825 361 822 336 b 404 -14 775 132 590 -14 b 133 242 243 -14 133 94 b 142 313 133 264 136 288 b 554 639 183 492 368 639 m 493 867 b 549 815 526 867 549 844 b 546 801 549 811 547 807 b 464 736 539 767 501 736 b 407 789 431 736 407 760 b 408 801 407 793 408 797 b 493 867 417 838 456 867 m 722 867 b 778 815 756 867 778 844 b 775 801 778 811 776 807 b 693 736 768 767 731 736 b 636 789 660 736 636 760 b 638 801 636 793 638 797 b 722 867 646 838 685 867 "},"÷":{"ha":725,"x_min":0,"x_max":0,"o":"m 756 253 l 114 253 l 114 369 l 756 369 m 424 639 b 506 560 468 639 506 601 b 424 481 506 517 468 481 b 343 560 379 481 343 517 b 424 639 343 601 379 639 m 424 143 b 506 64 468 143 506 107 b 424 -14 506 21 468 -14 b 343 64 379 -14 343 21 b 424 143 343 107 379 143 "},"ø":{"ha":831,"x_min":0,"x_max":0,"o":"m 633 492 b 532 517 606 508 571 517 b 269 313 414 517 296 425 b 264 267 265 297 264 282 b 286 183 264 236 272 207 m 339 131 b 438 108 365 115 400 108 b 696 313 554 108 669 199 b 701 364 700 331 701 347 b 685 439 701 392 696 417 m 560 639 b 733 582 629 639 689 618 l 778 621 l 882 621 l 786 528 b 831 383 815 488 831 439 b 822 313 831 361 828 338 b 410 -14 781 132 596 -14 b 240 42 342 -14 283 7 l 197 3 l 90 3 l 188 96 b 139 243 156 136 139 186 b 147 313 139 265 142 289 b 560 639 189 492 374 639 "},"ù":{"ha":871,"x_min":0,"x_max":0,"o":"m 428 -14 b 158 240 267 -14 158 94 b 167 313 158 264 161 288 l 239 625 l 363 625 l 290 313 b 285 268 286 297 285 283 b 456 108 285 176 354 108 b 718 313 574 108 692 200 l 790 625 l 907 625 l 760 -14 l 664 81 b 428 -14 607 29 510 -14 m 594 979 l 743 776 l 686 736 l 501 911 "},"ú":{"ha":871,"x_min":0,"x_max":0,"o":"m 428 -14 b 158 240 267 -14 158 94 b 167 313 158 264 161 288 l 239 625 l 363 625 l 290 313 b 285 268 286 297 285 283 b 456 108 285 176 354 108 b 718 313 574 108 692 200 l 790 625 l 907 625 l 760 -14 l 664 81 b 428 -14 607 29 510 -14 m 558 736 l 501 776 l 650 979 l 743 911 "},"û":{"ha":871,"x_min":0,"x_max":0,"o":"m 428 -14 b 158 240 267 -14 158 94 b 167 313 158 264 161 288 l 239 625 l 363 625 l 290 313 b 285 268 286 297 285 283 b 456 108 285 176 354 108 b 718 313 574 108 692 200 l 790 625 l 907 625 l 760 -14 l 664 81 b 428 -14 607 29 510 -14 m 650 976 l 756 776 l 689 736 l 615 825 l 504 736 l 457 776 "},"ü":{"ha":871,"x_min":0,"x_max":0,"o":"m 428 -14 b 158 240 267 -14 158 94 b 167 313 158 264 161 288 l 239 625 l 363 625 l 290 313 b 285 268 286 297 285 283 b 456 108 285 176 354 108 b 718 313 574 108 692 200 l 790 625 l 907 625 l 760 -14 l 664 81 b 428 -14 607 29 510 -14 m 514 867 b 568 815 546 867 568 844 b 567 801 568 811 568 807 b 483 736 558 767 521 736 b 428 789 450 736 428 760 b 429 801 428 793 428 797 b 514 867 438 838 476 867 m 743 867 b 797 815 775 867 797 844 b 796 801 797 811 797 807 b 713 736 788 767 750 736 b 657 789 679 736 657 760 b 658 801 657 793 657 797 b 743 867 667 838 706 867 "},"ý":{"ha":781,"x_min":0,"x_max":0,"o":"m 296 625 l 424 126 l 778 625 l 894 625 l 208 -347 l 78 -347 l 326 1 l 176 625 m 521 736 l 464 776 l 613 979 l 706 911 "},"þ":{"ha":854,"x_min":0,"x_max":0,"o":"m 557 514 b 300 313 439 514 326 428 b 294 267 296 297 294 281 b 465 113 294 175 363 113 b 718 313 582 113 692 197 b 724 360 722 329 724 344 b 557 514 724 450 657 514 m 586 639 b 853 388 746 639 853 535 b 844 313 853 364 850 339 b 436 -12 801 129 622 -12 b 244 71 356 -12 289 19 l 147 -347 l 28 -347 l 333 972 l 453 972 l 356 553 b 586 639 425 606 504 639 "},"ÿ":{"ha":781,"x_min":0,"x_max":0,"o":"m 296 625 l 424 126 l 778 625 l 894 625 l 208 -347 l 78 -347 l 326 1 l 176 625 m 476 867 b 531 815 508 867 531 844 b 529 801 531 811 531 807 b 446 736 521 767 483 736 b 390 789 413 736 390 760 b 392 801 390 793 390 797 b 476 867 400 838 439 867 m 706 867 b 760 815 738 867 760 844 b 758 801 760 811 760 807 b 675 736 750 767 713 736 b 619 789 642 736 619 760 b 621 801 619 793 619 797 b 706 867 629 838 668 867 "},"ı":{"ha":338,"x_min":0,"x_max":0,"o":"m 374 625 l 229 0 l 108 0 l 253 625 "},"Ł":{"ha":924,"x_min":0,"x_max":0,"o":"m 643 0 b 238 376 400 0 238 156 b 250 488 238 411 242 449 l 251 494 l 138 429 l 164 540 l 276 604 l 363 972 l 485 972 l 415 674 l 546 746 l 521 636 l 390 564 l 383 533 b 371 433 375 500 371 465 b 672 122 371 264 478 122 l 935 122 l 907 0 "},"ł":{"ha":415,"x_min":0,"x_max":0,"o":"m 508 972 l 440 679 l 563 746 l 538 635 l 414 567 l 283 0 l 164 0 l 279 497 l 154 429 l 181 539 l 304 610 l 389 972 "},"Œ":{"ha":1378,"x_min":0,"x_max":0,"o":"m 917 842 b 768 863 872 856 822 863 b 297 488 556 863 346 696 b 288 404 290 460 288 432 b 594 111 288 238 411 111 b 751 136 647 111 701 121 b 657 382 692 200 657 285 b 669 486 657 415 661 450 b 917 842 703 631 796 756 m 797 986 b 1043 918 893 986 976 963 b 1293 972 1121 951 1207 972 l 1557 972 l 1529 851 l 1267 851 b 811 543 1069 851 878 721 l 1335 543 l 1310 432 l 785 432 b 783 400 783 421 783 411 b 1097 122 783 238 913 122 l 1360 122 l 1332 1 l 1068 1 b 840 57 981 1 906 22 b 567 -14 756 13 661 -14 b 158 376 324 -14 158 154 b 171 486 158 411 163 449 b 797 986 235 763 515 986 "},"œ":{"ha":1278,"x_min":0,"x_max":0,"o":"m 1174 475 b 1075 517 1164 499 1131 517 b 817 313 958 517 843 425 b 808 260 813 294 810 275 m 526 517 b 268 313 410 517 294 425 b 263 267 264 297 263 282 b 432 108 263 175 332 108 b 690 313 549 108 664 199 b 696 357 693 328 696 343 b 526 517 696 449 626 517 m 554 639 b 794 492 671 639 758 581 b 1103 639 872 581 986 639 b 1343 461 1233 639 1315 563 l 840 169 b 981 108 868 132 918 108 b 1147 167 1039 108 1099 131 l 1219 89 b 953 -14 1142 26 1047 -14 b 711 133 836 -14 747 44 b 404 -14 633 44 521 -14 b 133 242 243 -14 133 94 b 142 313 133 264 136 288 b 554 639 183 492 368 639 "},"Š":{"ha":719,"x_min":0,"x_max":0,"o":"m 582 986 b 810 857 689 986 767 938 l 703 781 b 553 863 674 831 624 863 b 371 733 439 863 390 817 b 368 710 369 725 368 718 b 746 331 368 553 746 533 b 739 285 746 317 743 301 b 310 -14 697 101 496 -14 b 56 115 203 -14 100 36 l 164 193 b 338 110 193 143 267 110 b 613 285 454 110 586 171 b 615 308 615 293 615 301 b 239 683 615 464 239 460 b 244 733 239 699 240 715 b 582 986 271 856 394 986 m 556 1282 l 625 1193 l 740 1282 l 788 1242 l 590 1042 l 489 1242 "},"š":{"ha":547,"x_min":0,"x_max":0,"o":"m 421 639 b 574 536 493 639 547 601 l 476 468 b 393 517 463 499 435 517 b 314 463 343 517 322 497 b 313 449 313 457 313 453 b 526 232 313 363 526 379 b 521 188 526 218 525 204 b 239 -14 492 63 361 -14 b 72 88 167 -14 99 24 l 176 163 b 267 107 193 133 225 107 b 400 188 324 107 388 135 b 401 201 401 193 401 197 b 189 421 401 292 189 268 b 193 463 189 433 190 447 b 421 639 211 549 296 639 m 399 976 l 468 888 l 583 976 l 631 936 l 433 736 l 332 936 "},"Ÿ":{"ha":807,"x_min":0,"x_max":0,"o":"m 1024 972 l 161 0 l 32 0 l 461 489 l 257 972 l 392 972 l 558 589 l 897 972 m 571 1172 b 625 1121 603 1172 625 1150 b 624 1107 625 1117 625 1113 b 540 1042 615 1072 578 1042 b 485 1094 508 1042 485 1065 b 486 1107 485 1099 485 1103 b 571 1172 494 1143 533 1172 m 800 1172 b 854 1121 832 1172 854 1150 b 853 1107 854 1117 854 1113 b 769 1042 844 1072 807 1042 b 714 1094 738 1042 714 1065 b 715 1107 714 1099 714 1103 b 800 1172 724 1143 763 1172 "},"Ž":{"ha":761,"x_min":0,"x_max":0,"o":"m 589 540 l 692 540 l 667 431 l 506 431 l 242 110 l 760 110 l 735 0 l 17 0 l 369 431 l 261 431 l 286 540 l 454 540 l 719 863 l 258 863 l 285 972 l 936 972 m 578 1282 l 647 1193 l 763 1282 l 810 1242 l 613 1042 l 511 1242 "},"ž":{"ha":726,"x_min":0,"x_max":0,"o":"m 283 107 l 706 107 l 681 0 l 38 0 l 583 517 l 179 517 l 204 625 l 819 625 m 490 976 l 561 888 l 675 976 l 724 936 l 525 736 l 425 936 "},"ſ":{"ha":361,"x_min":0,"x_max":0,"o":"m 269 624 l 276 657 b 664 986 317 828 486 971 l 636 868 b 400 657 528 854 425 763 l 249 0 l 125 0 l 244 518 l 140 518 "},"ƒ":{"ha":550,"x_min":0,"x_max":0,"o":"m 360 631 l 365 656 b 753 986 406 828 575 971 l 725 867 b 489 656 617 853 514 761 l 483 631 l 586 631 l 558 511 l 456 511 l 365 121 b -24 -208 326 -50 154 -193 l 4 -89 b 242 121 114 -75 218 15 l 332 511 l 229 511 l 257 631 "},"ˆ":{"ha":426,"x_min":0,"x_max":0,"o":"m 436 972 l 540 772 l 475 732 l 400 821 l 290 732 l 242 772 "},"ˇ":{"ha":428,"x_min":0,"x_max":0,"o":"m 347 972 l 417 883 l 532 972 l 579 932 l 382 732 l 281 932 "},"˘":{"ha":479,"x_min":0,"x_max":0,"o":"m 388 969 b 374 924 378 950 374 935 b 449 882 374 883 419 882 b 544 972 504 885 531 915 l 617 972 b 422 799 593 869 517 803 l 418 799 b 293 899 367 799 293 824 b 310 969 293 918 297 942 l 388 969 "},"˙":{"ha":338,"x_min":0,"x_max":0,"o":"m 379 910 b 449 842 421 910 449 881 b 447 824 449 836 449 831 b 340 739 436 778 388 739 b 269 806 299 739 269 768 b 272 824 269 811 271 818 b 379 910 283 871 332 910 "},"˚":{"ha":406,"x_min":0,"x_max":0,"o":"m 385 810 b 460 865 419 810 453 835 b 461 878 461 869 461 874 b 410 922 461 903 440 922 b 335 865 375 922 342 897 b 333 854 333 861 333 858 b 385 810 333 829 354 810 m 372 758 b 276 843 315 758 276 796 b 279 865 276 850 278 858 b 422 972 293 925 357 972 b 519 888 479 972 519 936 b 517 865 519 881 518 872 b 372 758 503 807 438 758 "},"˛":{"ha":408,"x_min":0,"x_max":0,"o":"m 292 -253 b 172 -294 256 -282 215 -294 b 43 -175 97 -294 43 -246 b 46 -142 43 -164 44 -153 b 160 0 53 -103 79 -56 l 289 0 b 138 -142 211 -18 149 -97 b 136 -158 138 -147 136 -153 b 192 -211 136 -189 158 -211 b 264 -187 219 -211 246 -201 "},"˜":{"ha":643,"x_min":0,"x_max":0,"o":"m 489 818 b 414 857 469 832 442 854 b 303 786 367 854 346 825 l 246 832 b 429 943 300 883 349 940 b 531 913 469 943 499 935 b 606 874 550 896 578 874 l 607 874 b 713 944 642 874 678 913 l 778 900 b 588 786 714 836 636 788 l 581 786 b 489 818 544 786 518 796 "},"˝":{"ha":574,"x_min":0,"x_max":0,"o":"m 499 729 l 451 769 l 647 972 l 724 904 m 288 729 l 240 769 l 436 972 l 513 904 "},"π":{"ha":801,"x_min":0,"x_max":0,"o":"m 757 514 l 600 154 b 596 131 597 144 596 138 b 636 100 596 108 608 100 b 701 106 651 100 669 101 l 663 4 b 585 -10 635 -1 613 -6 b 460 85 504 -10 460 22 b 465 125 460 97 461 111 b 638 514 475 167 621 476 l 465 514 l 238 4 l 118 4 l 347 514 l 332 514 b 249 432 296 514 268 489 l 142 432 b 388 625 199 581 256 625 l 908 625 l 861 514 "}," ":{"ha":694,"x_min":0,"x_max":0,"o":""}," ":{"ha":1389,"x_min":0,"x_max":0,"o":""}," ":{"ha":694,"x_min":0,"x_max":0,"o":""}," ":{"ha":1389,"x_min":0,"x_max":0,"o":""}," ":{"ha":463,"x_min":0,"x_max":0,"o":""}," ":{"ha":347,"x_min":0,"x_max":0,"o":""}," ":{"ha":231,"x_min":0,"x_max":0,"o":""}," ":{"ha":840,"x_min":0,"x_max":0,"o":""}," ":{"ha":343,"x_min":0,"x_max":0,"o":""}," ":{"ha":139,"x_min":0,"x_max":0,"o":""}," ":{"ha":14,"x_min":0,"x_max":0,"o":""},"‐":{"ha":711,"x_min":0,"x_max":0,"o":"m 93 371 l 763 371 l 763 253 l 93 253 "},"‑":{"ha":711,"x_min":0,"x_max":0,"o":"m 93 371 l 763 371 l 763 253 l 93 253 "},"‒":{"ha":840,"x_min":0,"x_max":0,"o":"m 93 371 l 892 371 l 892 253 l 93 253 "},"–":{"ha":694,"x_min":0,"x_max":0,"o":"m 93 371 l 746 371 l 746 253 l 93 253 "},"—":{"ha":1389,"x_min":0,"x_max":0,"o":"m 93 371 l 1440 371 l 1440 253 l 93 253 "},"―":{"ha":2778,"x_min":0,"x_max":0,"o":"m 93 371 l 2829 371 l 2829 253 l 93 253 "},"‖":{"ha":675,"x_min":0,"x_max":0,"o":"m 658 972 l 658 -174 l 538 -174 l 538 972 m 321 972 l 321 -174 l 200 -174 l 200 972 "},"‘":{"ha":354,"x_min":0,"x_max":0,"o":"m 368 833 b 301 894 329 833 301 860 b 303 910 301 899 301 904 l 442 1135 l 501 1083 l 435 975 b 468 926 456 967 468 949 b 465 910 468 921 467 915 b 368 833 456 868 413 833 "},"’":{"ha":314,"x_min":0,"x_max":0,"o":"m 422 1111 b 488 1049 461 1111 488 1083 b 486 1033 488 1044 488 1039 l 349 810 l 288 861 l 354 969 b 321 1017 333 978 321 994 b 324 1033 321 1022 322 1028 b 422 1111 333 1075 378 1111 "},"‚":{"ha":326,"x_min":0,"x_max":0,"o":"m 193 126 b 258 65 232 126 258 100 b 257 49 258 60 258 54 l 119 -175 l 58 -124 l 126 -14 b 93 33 104 -7 93 11 b 94 49 93 38 93 43 b 193 126 104 92 149 126 "},"‛":{"ha":321,"x_min":0,"x_max":0,"o":"m 407 1111 b 471 1050 444 1111 471 1083 b 469 1033 471 1044 471 1039 b 408 969 463 1003 439 979 l 425 861 l 342 810 l 307 1033 b 407 1111 317 1075 363 1111 "},"“":{"ha":590,"x_min":0,"x_max":0,"o":"m 604 833 b 538 894 565 833 538 860 b 539 910 538 899 538 904 l 678 1135 l 738 1083 l 671 975 b 704 926 692 967 704 949 b 701 910 704 921 703 915 b 604 833 692 868 649 833 m 368 833 b 301 894 329 833 301 860 b 303 910 301 899 301 904 l 442 1135 l 501 1083 l 435 975 b 468 926 456 967 468 949 b 465 910 468 921 467 915 b 368 833 456 868 413 833 "},"”":{"ha":528,"x_min":0,"x_max":0,"o":"m 636 1111 b 701 1049 675 1111 701 1083 b 700 1033 701 1044 701 1039 l 563 810 l 501 861 l 568 969 b 535 1017 547 978 535 994 b 538 1033 535 1022 536 1028 b 636 1111 547 1075 592 1111 m 422 1111 b 488 1049 461 1111 488 1083 b 486 1033 488 1044 488 1039 l 349 810 l 288 861 l 354 969 b 321 1017 333 978 321 994 b 324 1033 321 1022 322 1028 b 422 1111 333 1075 378 1111 "},"„":{"ha":540,"x_min":0,"x_max":0,"o":"m 407 126 b 472 65 446 126 472 100 b 471 49 472 60 472 54 l 333 -175 l 272 -124 l 340 -14 b 307 33 318 -7 307 11 b 308 49 307 38 307 43 b 407 126 318 92 363 126 m 193 126 b 258 65 232 126 258 100 b 257 49 258 60 258 54 l 119 -175 l 58 -124 l 126 -14 b 93 33 104 -7 93 11 b 94 49 93 38 93 43 b 193 126 104 92 149 126 "},"‟":{"ha":565,"x_min":0,"x_max":0,"o":"m 651 1111 b 715 1050 689 1111 715 1083 b 714 1033 715 1044 715 1039 b 653 969 707 1003 683 979 l 669 861 l 586 810 l 551 1033 b 651 1111 561 1075 607 1111 m 407 1111 b 471 1050 444 1111 471 1083 b 469 1033 471 1044 471 1039 b 408 969 463 1003 439 979 l 425 861 l 342 810 l 307 1033 b 407 1111 317 1075 363 1111 "},"†":{"ha":519,"x_min":0,"x_max":0,"o":"m 522 972 b 539 947 536 972 543 963 l 481 693 l 633 693 b 654 675 647 693 654 686 b 653 669 654 674 654 672 l 635 588 b 604 564 631 574 619 564 l 451 564 l 279 -183 b 249 -208 275 -199 263 -208 l 165 -208 b 147 -190 154 -208 147 -201 b 149 -183 147 -189 147 -186 l 321 564 l 175 564 b 156 588 160 564 151 574 l 174 669 b 204 693 178 683 189 693 l 350 693 l 408 947 b 439 972 413 963 425 972 "},"‡":{"ha":563,"x_min":0,"x_max":0,"o":"m 543 972 b 560 949 557 972 563 963 l 501 696 l 656 696 b 675 678 668 696 675 689 l 675 672 l 656 590 b 625 567 653 576 640 567 l 471 567 l 354 58 l 508 58 b 528 36 524 58 531 49 l 508 -46 b 478 -69 506 -60 493 -69 l 324 -69 l 265 -322 b 238 -347 263 -337 251 -347 l 154 -347 b 136 -322 140 -347 133 -337 l 194 -69 l 49 -69 b 29 -51 36 -69 29 -62 l 29 -46 l 49 36 b 79 58 51 49 64 58 l 225 58 l 342 567 l 196 567 b 176 590 181 567 174 576 l 196 672 b 226 696 199 686 211 696 l 372 696 l 431 949 b 460 972 433 963 446 972 "},"•":{"ha":579,"x_min":0,"x_max":0,"o":"m 389 639 b 601 431 510 639 601 546 b 389 222 601 317 510 222 b 176 431 268 222 176 317 b 389 639 176 546 268 639 "},"‣":{"ha":529,"x_min":0,"x_max":0,"o":"m 171 49 l 171 604 l 572 328 "},"․":{"ha":343,"x_min":0,"x_max":0,"o":"m 201 147 b 267 85 240 147 267 121 b 264 67 267 79 265 72 b 165 -14 254 22 210 -14 b 101 49 126 -14 101 13 b 103 67 101 54 101 61 b 201 147 113 111 157 147 "},"‥":{"ha":686,"x_min":0,"x_max":0,"o":"m 544 147 b 610 85 583 147 610 121 b 607 67 610 79 608 72 b 508 -14 597 22 553 -14 b 444 49 469 -14 444 13 b 446 67 444 54 444 61 b 544 147 456 111 500 147 m 201 147 b 267 85 240 147 267 121 b 264 67 267 79 265 72 b 165 -14 254 22 210 -14 b 101 49 126 -14 101 13 b 103 67 101 54 101 61 b 201 147 113 111 157 147 "},"…":{"ha":1029,"x_min":0,"x_max":0,"o":"m 888 147 b 953 85 926 147 953 121 b 950 67 953 79 951 72 b 851 -14 940 22 896 -14 b 788 49 813 -14 788 13 b 789 67 788 54 788 61 b 888 147 799 111 843 147 m 544 147 b 610 85 583 147 610 121 b 607 67 610 79 608 72 b 508 -14 597 22 553 -14 b 444 49 469 -14 444 13 b 446 67 444 54 444 61 b 544 147 456 111 500 147 m 201 147 b 267 85 240 147 267 121 b 264 67 267 79 265 72 b 165 -14 254 22 210 -14 b 101 49 126 -14 101 13 b 103 67 101 54 101 61 b 201 147 113 111 157 147 "},"‰":{"ha":1444,"x_min":0,"x_max":0,"o":"m 1329 492 b 1468 361 1411 492 1468 436 b 1464 326 1468 350 1467 338 l 1425 157 b 1213 -14 1401 60 1307 -14 b 1074 121 1131 -14 1074 42 b 1078 157 1074 132 1075 144 l 1117 326 b 1329 492 1142 419 1236 492 m 1369 326 b 1371 339 1371 331 1371 335 b 1308 401 1371 375 1346 401 b 1213 326 1265 401 1225 367 l 1174 157 b 1172 143 1172 151 1172 147 b 1235 82 1172 107 1196 82 b 1331 157 1278 82 1318 114 m 926 492 b 1065 361 1008 492 1065 436 b 1061 326 1065 350 1064 338 l 1022 157 b 810 -14 999 60 904 -14 b 671 121 728 -14 671 42 b 675 157 671 132 672 144 l 714 326 b 926 492 739 419 833 492 m 967 326 b 968 339 968 331 968 335 b 906 401 968 375 943 401 b 810 326 863 401 822 367 l 771 157 b 769 143 769 151 769 147 b 832 82 769 107 793 82 b 928 157 875 82 915 114 m 457 986 b 594 853 539 986 594 929 b 592 815 594 840 594 828 l 551 646 b 343 492 531 558 438 492 b 201 617 260 492 201 544 b 204 646 201 626 203 636 l 244 815 b 457 986 269 914 364 986 m 497 815 l 497 828 b 435 890 497 864 474 890 b 340 815 392 890 351 856 l 300 646 l 300 632 b 361 571 300 597 322 571 b 457 646 404 571 444 604 m 1089 969 l 272 4 l 167 4 l 983 969 "},"‹":{"ha":397,"x_min":0,"x_max":0,"o":"m 118 331 l 475 604 l 256 313 l 347 49 l 108 289 "},"›":{"ha":394,"x_min":0,"x_max":0,"o":"m 69 49 l 283 313 l 197 604 l 429 331 l 419 289 "},"⁄":{"ha":724,"x_min":0,"x_max":0,"o":"m 939 972 l 106 0 l 0 0 l 833 972 "},"€":{"ha":940,"x_min":0,"x_max":0,"o":"m 1019 851 l 846 851 b 433 629 681 851 518 761 l 814 629 l 715 510 l 381 510 b 376 488 379 501 378 496 b 364 411 371 461 367 433 l 619 411 l 521 293 l 382 293 b 676 122 422 189 532 122 l 939 122 l 911 0 l 647 0 b 249 293 436 0 285 118 l 115 293 l 142 411 l 242 411 l 242 426 b 249 488 242 446 244 467 b 258 510 250 496 256 501 l 165 510 l 193 629 l 306 629 b 872 972 413 832 642 972 l 1119 972 "},"ℓ":{"ha":732,"x_min":0,"x_max":0,"o":"m 738 176 b 408 -7 639 50 525 -7 b 213 185 265 -7 213 78 b 217 239 213 201 214 221 b 219 256 218 244 218 250 l 121 190 l 100 258 b 240 354 150 293 197 321 l 326 724 b 639 1065 385 979 522 1065 b 786 908 743 1065 786 999 b 778 833 786 885 783 860 b 351 328 738 660 578 497 l 342 286 b 335 222 336 263 335 242 b 457 89 335 131 389 89 b 693 228 550 89 640 163 m 378 440 b 692 832 533 569 661 701 b 700 893 697 854 700 875 b 621 978 700 944 678 978 b 446 739 568 978 489 921 "},"№":{"ha":1619,"x_min":0,"x_max":0,"o":"m 1574 986 b 1754 814 1681 986 1754 914 b 1749 765 1754 799 1753 782 b 1472 544 1721 643 1594 544 b 1290 717 1364 544 1290 618 b 1296 765 1290 732 1292 749 b 1574 986 1325 889 1449 986 m 1553 897 b 1386 765 1478 897 1403 839 b 1383 736 1385 756 1383 746 b 1492 632 1383 676 1426 632 b 1657 765 1567 632 1640 692 b 1661 796 1660 775 1661 786 b 1553 897 1661 854 1618 897 m 1092 483 b 1101 567 1099 513 1101 540 b 793 861 1101 735 976 861 b 319 483 581 861 368 692 l 208 0 l 85 0 l 197 485 b 822 986 261 761 540 986 b 1229 596 1065 986 1229 819 b 1217 485 1229 560 1225 524 l 1104 0 l 981 0 m 1661 490 l 1642 411 l 1233 411 l 1251 490 "},"™":{"ha":1029,"x_min":0,"x_max":0,"o":"m 1042 728 b 913 890 1042 811 985 881 l 913 489 l 826 489 l 826 890 b 699 728 754 879 699 811 l 699 489 l 613 489 l 613 729 b 871 982 613 868 728 982 b 1135 729 1017 982 1135 868 l 1135 489 l 1042 489 m 383 889 l 232 889 l 232 969 l 613 969 l 613 889 l 471 889 l 471 489 l 383 489 "},"Ω":{"ha":1164,"x_min":0,"x_max":0,"o":"m 807 988 b 1217 596 1050 988 1217 819 b 1204 485 1217 560 1213 522 b 942 117 1169 336 1072 204 l 1103 117 l 1076 0 l 660 0 l 686 117 l 699 117 b 1076 486 876 158 1035 308 b 1086 569 1083 515 1086 543 b 779 864 1086 738 961 864 b 307 486 567 864 354 694 b 297 403 300 457 297 429 b 513 117 297 263 382 151 l 525 117 l 499 0 l 88 0 l 114 117 l 274 117 b 168 378 206 182 168 274 b 181 485 168 413 171 449 b 807 988 244 761 525 988 "},"℮":{"ha":1431,"x_min":0,"x_max":0,"o":"m 485 472 b 478 467 481 472 478 471 l 478 194 b 489 163 478 182 482 172 b 829 15 576 72 696 15 b 1188 181 972 15 1100 81 l 1267 181 b 828 -12 1168 64 1007 -12 b 274 486 522 -12 274 210 b 828 986 274 763 522 986 b 1383 486 1136 986 1383 763 l 1383 472 m 1179 782 b 1167 814 1179 793 1175 806 b 829 956 1079 900 961 956 b 490 810 697 956 578 899 b 478 775 482 800 478 789 l 478 507 b 485 499 478 504 481 499 l 1174 499 b 1179 507 1178 499 1179 504 "},"∂":{"ha":643,"x_min":0,"x_max":0,"o":"m 479 285 b 394 411 479 367 447 411 b 261 161 318 411 261 310 b 346 38 261 82 290 40 b 479 285 421 38 479 140 m 518 368 b 525 538 522 429 524 485 b 454 672 525 625 500 672 l 318 586 l 257 663 l 407 760 b 647 429 550 760 647 633 b 346 -12 647 181 519 -12 b 133 208 229 -12 133 79 b 364 472 133 361 232 472 b 518 368 440 472 485 442 "},"∆":{"ha":856,"x_min":0,"x_max":0,"o":"m 715 942 l 835 0 l 19 0 l 575 942 m 218 124 l 693 124 l 608 790 "},"∏":{"ha":915,"x_min":0,"x_max":0,"o":"m 894 972 l 894 -208 l 774 -208 l 774 853 l 317 853 l 317 -208 l 196 -208 l 196 972 "},"∑":{"ha":844,"x_min":0,"x_max":0,"o":"m 875 972 l 875 853 l 268 856 l 714 401 l 313 -76 l 892 -76 l 892 -194 l 115 -194 l 115 -107 l 561 436 l 133 865 l 133 972 "},"−":{"ha":711,"x_min":0,"x_max":0,"o":"m 107 371 l 749 371 l 749 253 l 107 253 "},"√":{"ha":839,"x_min":0,"x_max":0,"o":"m 1011 1046 l 1011 971 l 847 971 l 506 -25 l 453 -25 l 274 519 l 200 494 l 181 558 l 357 622 l 500 183 l 790 1046 "},"∞":{"ha":911,"x_min":0,"x_max":0,"o":"m 543 269 b 357 126 490 172 431 126 b 161 350 249 126 161 221 b 346 575 161 481 233 575 b 529 431 418 575 472 532 b 715 576 579 529 640 576 b 911 353 821 576 911 481 b 728 129 911 221 838 129 b 543 269 656 129 603 165 m 490 379 b 349 465 460 435 410 465 b 226 346 276 465 226 415 b 335 228 226 282 271 228 b 490 379 392 228 436 265 m 583 321 b 725 235 615 265 664 235 b 846 356 794 235 846 283 b 738 474 846 421 800 474 b 583 321 681 474 636 435 "},"∫":{"ha":613,"x_min":0,"x_max":0,"o":"m 268 -143 b 324 271 300 -143 321 -6 b 571 1000 338 783 386 1000 b 685 894 632 1000 685 961 b 604 814 685 847 657 814 b 532 865 567 814 543 829 b 525 911 531 871 529 911 b 465 539 489 911 469 788 b 219 -232 457 1 406 -232 b 104 -131 151 -232 104 -190 b 189 -44 104 -85 128 -44 b 254 -87 218 -44 239 -58 b 268 -143 257 -97 260 -143 "},"≈":{"ha":842,"x_min":0,"x_max":0,"o":"m 864 315 b 653 189 818 231 749 189 l 649 189 b 364 271 524 189 482 267 b 228 189 311 271 290 258 l 156 242 b 365 364 213 324 282 364 b 526 324 433 364 483 343 b 651 282 571 303 608 282 b 796 367 706 282 732 299 m 864 524 b 653 397 818 440 749 397 l 649 397 b 364 479 524 397 482 475 b 228 397 311 479 290 467 l 156 450 b 365 572 213 533 282 572 b 526 532 433 572 483 553 b 651 492 571 513 608 492 b 796 575 706 492 732 507 "},"≠":{"ha":803,"x_min":0,"x_max":0,"o":"m 535 475 l 671 653 l 747 588 l 657 475 l 813 475 l 813 364 l 582 364 l 486 247 l 813 247 l 813 136 l 408 136 l 271 -39 l 194 28 l 285 136 l 132 136 l 132 247 l 361 247 l 457 364 l 132 364 l 132 475 "},"≤":{"ha":822,"x_min":0,"x_max":0,"o":"m 806 111 l 806 0 l 128 0 l 128 111 m 313 422 l 806 275 l 806 160 l 128 369 l 128 476 l 806 683 l 806 569 "},"≥":{"ha":824,"x_min":0,"x_max":0,"o":"m 831 0 l 151 0 l 151 111 l 831 111 m 151 683 l 831 476 l 831 369 l 151 160 l 151 275 l 646 422 l 151 569 "},"◊":{"ha":649,"x_min":0,"x_max":0,"o":"m 701 339 l 403 -272 l 104 339 l 403 947 m 193 339 l 403 -114 l 614 339 l 403 789 "},"":{"ha":704,"x_min":0,"x_max":0,"o":"m 374 1319 l 939 1319 l 915 1215 l 350 1215 "},"":{"ha":1140,"x_min":0,"x_max":0,"o":"m 481 626 b 728 464 594 624 693 569 l 833 176 b 1056 482 942 244 1026 356 b 1065 567 1063 511 1065 540 b 758 861 1065 736 942 861 b 347 625 599 861 438 776 m 604 401 b 449 507 581 467 519 506 l 292 507 l 286 482 b 276 397 279 453 276 425 b 583 113 276 228 400 113 b 708 129 628 113 665 117 m 788 986 b 1196 593 1031 986 1196 818 b 1183 481 1196 557 1192 519 b 871 71 1144 311 1024 160 l 896 11 b 1060 -92 921 -54 985 -92 b 1143 -76 1088 -92 1115 -86 l 1179 -182 b 1033 -210 1131 -200 1081 -210 b 774 -51 917 -210 814 -154 l 751 14 b 554 -14 688 -11 621 -14 b 146 368 311 -14 146 143 b 160 481 146 404 150 442 b 788 986 224 760 506 986 "},"":{"ha":1072,"x_min":0,"x_max":0,"o":"m 919 972 b 911 904 914 947 911 922 b 1011 801 911 833 951 810 l 1118 801 l 1078 625 l 1182 625 l 1154 507 l 1050 507 l 933 0 l 813 0 l 929 507 l 825 507 l 853 625 l 957 625 l 971 683 b 856 799 903 693 856 725 b 861 850 856 814 857 832 l 807 850 b 568 657 651 850 568 775 l 568 644 b 751 543 646 636 710 600 l 647 460 b 504 524 615 499 565 524 l 501 524 b 246 317 378 524 271 429 b 240 271 242 301 240 286 b 408 110 240 179 308 110 b 575 169 467 110 526 133 l 647 92 b 381 -14 571 28 475 -14 b 110 244 219 -14 110 97 b 119 317 110 267 113 292 b 454 639 156 476 328 639 l 458 657 b 836 972 499 828 664 958 "},"":{"ha":1371,"x_min":0,"x_max":0,"o":"m 1024 103 b 1283 311 1140 103 1257 196 b 1289 358 1286 328 1289 343 b 1119 519 1289 450 1221 519 b 857 311 1001 519 883 426 b 851 265 853 296 851 281 b 1024 103 851 172 922 103 m 442 469 b 358 519 428 501 400 519 b 279 464 308 519 288 500 b 278 450 278 460 278 454 b 499 228 278 358 499 376 b 492 183 499 215 496 200 b 208 -22 463 56 331 -22 b 43 82 136 -22 69 17 l 147 158 b 238 101 164 129 196 101 b 371 183 294 101 360 131 b 374 199 372 189 374 193 b 154 425 374 292 154 275 b 158 464 154 436 156 450 b 308 628 172 532 226 603 l 308 651 b 689 972 349 825 515 957 l 772 972 b 764 903 767 946 764 921 b 864 800 764 832 803 808 l 969 800 l 914 560 b 1149 643 983 613 1068 643 b 1418 385 1308 643 1418 533 b 1410 311 1418 361 1415 336 b 994 -22 1367 128 1181 -22 b 800 64 913 -22 844 11 l 704 -347 l 585 -347 l 822 681 b 707 797 756 690 707 722 b 714 849 707 813 710 829 l 660 849 b 422 653 506 849 422 772 l 422 639 b 540 539 476 628 518 594 "},"":{"ha":738,"x_min":0,"x_max":0,"o":"m 801 914 b 871 846 842 914 871 883 b 869 828 871 840 871 833 b 761 742 858 782 808 742 b 692 810 721 742 692 772 b 694 828 692 815 693 822 b 801 914 704 874 754 914 m 300 625 l 307 657 b 694 985 347 828 517 969 l 667 868 b 429 657 558 854 454 763 l 422 625 l 794 625 l 572 -347 l 451 -347 l 646 507 l 394 507 l 278 0 l 156 0 l 272 507 l 169 507 l 197 625 "},"":{"ha":1094,"x_min":0,"x_max":0,"o":"m 1157 914 b 1226 844 1197 914 1226 883 b 1224 825 1226 838 1225 832 b 1117 742 1214 781 1164 742 b 1047 808 1076 742 1047 771 b 1049 825 1047 814 1047 819 b 1157 914 1060 872 1110 914 m 285 625 b 668 939 324 789 529 936 l 642 825 b 406 625 546 825 436 732 l 656 625 l 663 657 b 1050 986 703 828 872 971 l 1022 868 b 785 657 914 854 810 763 l 778 625 l 1150 625 l 924 -347 l 803 -347 l 1001 507 l 750 507 l 633 0 l 511 0 l 628 507 l 378 507 l 261 0 l 140 0 l 257 507 l 153 507 l 181 625 "},"":{"ha":808,"x_min":0,"x_max":0,"o":"m 278 0 l 156 0 l 272 507 l 169 507 l 197 625 l 300 625 l 307 657 b 694 986 347 828 517 971 l 667 868 b 429 657 558 854 454 763 l 422 625 l 689 625 l 729 799 l 850 799 l 810 625 l 914 625 l 886 510 l 782 510 l 665 0 l 544 0 l 661 510 l 394 507 "},"ﬀ":{"ha":806,"x_min":0,"x_max":0,"o":"m 285 625 b 668 939 324 789 529 936 l 640 819 b 406 625 544 819 435 728 l 656 625 l 663 657 b 1050 986 703 828 872 971 l 1022 868 b 785 657 914 854 810 763 l 778 625 l 882 625 l 854 507 l 750 507 l 633 0 l 511 0 l 628 507 l 378 507 l 261 0 l 140 0 l 257 507 l 153 507 l 181 625 "},"ﬁ":{"ha":758,"x_min":0,"x_max":0,"o":"m 801 914 b 871 846 842 914 871 883 b 869 828 871 840 871 833 b 761 742 858 782 808 742 b 692 810 721 742 692 772 b 694 828 692 815 693 822 b 801 914 704 874 754 914 m 300 625 l 307 657 b 694 985 347 828 517 969 l 667 868 b 429 657 558 854 454 763 l 422 625 l 794 625 l 650 0 l 529 0 l 646 507 l 394 507 l 278 0 l 156 0 l 272 507 l 169 507 l 197 625 "},"ﬂ":{"ha":758,"x_min":0,"x_max":0,"o":"m 300 625 l 307 656 b 685 972 346 826 511 957 l 874 972 l 650 0 l 529 0 l 726 853 l 656 853 b 429 656 550 840 453 758 l 422 625 l 526 625 l 499 507 l 394 507 l 278 0 l 156 0 l 272 507 l 169 507 l 197 625 "},"ﬃ":{"ha":1107,"x_min":0,"x_max":0,"o":"m 1157 914 b 1226 844 1197 914 1226 883 b 1224 825 1226 838 1225 832 b 1117 742 1214 781 1164 742 b 1047 808 1076 742 1047 771 b 1049 825 1047 814 1047 819 b 1157 914 1060 872 1110 914 m 285 625 b 668 939 324 789 529 936 l 642 825 b 406 625 546 825 436 732 l 656 625 l 663 657 b 1050 986 703 828 872 971 l 1022 868 b 785 657 914 854 810 763 l 778 625 l 1150 625 l 1006 0 l 885 0 l 1001 507 l 750 507 l 633 0 l 511 0 l 628 507 l 378 507 l 261 0 l 140 0 l 257 507 l 153 507 l 181 625 "},"ﬄ":{"ha":1113,"x_min":0,"x_max":0,"o":"m 285 625 b 668 936 324 789 528 933 l 640 817 b 406 625 544 817 435 728 l 656 625 l 663 656 b 1040 972 701 826 867 957 l 1231 972 l 1006 0 l 885 0 l 1082 853 l 1013 853 b 785 656 906 840 808 758 l 778 625 l 882 625 l 854 507 l 750 507 l 633 0 l 511 0 l 628 507 l 378 507 l 261 0 l 140 0 l 257 507 l 153 507 l 181 625 "},"ﬅ":{"ha":808,"x_min":0,"x_max":0,"o":"m 269 625 l 276 657 b 664 986 317 828 486 971 b 651 903 656 956 651 926 b 744 803 651 839 681 804 l 853 803 l 813 625 l 917 625 l 890 511 l 786 511 l 668 0 l 547 0 l 665 511 l 561 511 l 588 625 l 692 625 l 706 685 b 594 811 640 694 594 736 b 600 863 594 826 596 844 b 400 657 507 839 422 754 l 249 0 l 125 0 l 243 511 l 139 511 "},"ﬆ":{"ha":940,"x_min":0,"x_max":0,"o":"m 458 474 b 375 524 444 506 417 524 b 296 469 325 524 304 504 b 294 456 294 465 294 460 b 508 236 294 364 508 379 b 503 190 508 222 507 207 b 226 -14 474 64 349 -14 b 54 94 154 -14 81 31 l 164 165 b 254 108 182 136 213 108 b 382 190 311 108 369 138 b 383 204 382 196 383 200 b 169 428 383 296 169 283 b 175 469 169 440 171 454 b 325 632 189 536 243 606 l 325 656 b 704 972 365 828 532 958 l 788 972 b 779 904 782 947 779 922 b 879 801 779 833 819 810 l 986 801 l 946 625 l 1050 625 l 1022 507 l 918 507 l 801 0 l 681 0 l 797 507 l 693 507 l 721 625 l 825 625 l 839 683 b 724 799 771 693 724 725 b 729 850 724 814 725 832 l 675 850 b 439 657 522 850 439 775 l 439 643 b 556 543 493 632 533 597 "}}}
